<svg xmlns="http://www.w3.org/2000/svg" xmlns:xlink="http://www.w3.org/1999/xlink" width="1080" zoomAndPan="magnify" viewBox="0 0 810 809.999993" height="1080" preserveAspectRatio="xMidYMid meet" version="1.0"><path fill="#cbcce7" d="M 237.210938 259.472656 C 300.261719 195.78125 282.210938 155.863281 325.351562 126.375 C 391.730469 80.996094 515.613281 120.039062 588.710938 182.445312 C 678.222656 258.890625 724.414062 398.464844 671.800781 524.730469 C 615.769531 659.203125 468.34375 729.007812 336.792969 707.96875 C 219.320312 689.183594 103.84375 596.25 92.273438 484.792969 C 91.019531 472.714844 85.480469 407.40625 124.3125 351.105469 C 156.40625 304.566406 187.234375 309.960938 237.210938 259.472656 " fill-opacity="1" fill-rule="nonzero"/><path fill="#a1a3d4" d="M 504.621094 287.457031 C 496.878906 289.582031 488.886719 285.015625 486.761719 277.269531 C 484.640625 269.519531 489.203125 261.515625 496.945312 259.394531 C 504.691406 257.273438 512.683594 261.835938 514.808594 269.582031 C 516.925781 277.332031 512.367188 285.335938 504.621094 287.457031 Z M 529.707031 268.429688 L 528.214844 262.976562 L 522.050781 263.257812 C 521.480469 262.058594 520.820312 260.921875 520.074219 259.855469 L 523.335938 254.628906 L 519.320312 250.652344 L 514.125 253.980469 C 513.039062 253.238281 511.898438 252.582031 510.707031 252.03125 L 510.925781 245.863281 L 505.460938 244.429688 L 502.625 249.902344 C 501.328125 249.800781 500.011719 249.8125 498.691406 249.929688 L 495.792969 244.480469 L 490.347656 245.972656 L 490.625 252.140625 C 489.429688 252.710938 488.289062 253.375 487.222656 254.121094 L 482 250.855469 L 478.03125 254.875 L 481.351562 260.074219 C 480.609375 261.15625 479.960938 262.300781 479.40625 263.492188 L 473.242188 263.28125 L 471.808594 268.746094 L 477.277344 271.585938 C 477.179688 272.878906 477.191406 274.195312 477.304688 275.519531 L 471.863281 278.421875 L 473.359375 283.875 L 479.519531 283.59375 C 480.085938 284.792969 480.75 285.929688 481.496094 286.992188 L 478.234375 292.222656 L 482.25 296.199219 L 487.449219 292.875 C 488.527344 293.617188 489.667969 294.265625 490.859375 294.820312 L 490.648438 300.988281 L 496.105469 302.425781 L 498.945312 296.949219 C 500.234375 297.050781 501.554688 297.039062 502.875 296.921875 L 505.773438 302.371094 L 511.21875 300.875 L 510.941406 294.710938 C 512.136719 294.140625 513.277344 293.476562 514.34375 292.726562 L 519.570312 295.996094 L 523.539062 291.976562 L 520.214844 286.777344 C 520.957031 285.691406 521.609375 284.550781 522.160156 283.359375 L 528.328125 283.574219 L 529.757812 278.105469 L 524.289062 275.269531 C 524.386719 273.96875 524.378906 272.65625 524.257812 271.328125 L 529.707031 268.429688 " fill-opacity="1" fill-rule="nonzero"/><path fill="#000000" d="M 167.625 219 C 167.5 219 167.371094 218.976562 167.242188 218.929688 C 166.675781 218.71875 166.386719 218.089844 166.597656 217.523438 L 168.566406 212.222656 C 168.78125 211.65625 169.410156 211.367188 169.976562 211.578125 C 170.542969 211.785156 170.832031 212.417969 170.625 212.984375 L 168.652344 218.285156 C 168.488281 218.726562 168.070312 219 167.625 219 " fill-opacity="1" fill-rule="nonzero"/><path fill="#000000" d="M 163.035156 231.347656 C 162.90625 231.347656 162.777344 231.328125 162.652344 231.28125 C 162.085938 231.070312 161.796875 230.441406 162.007812 229.871094 L 163.976562 224.574219 C 164.1875 224.003906 164.820312 223.71875 165.386719 223.925781 C 165.953125 224.140625 166.242188 224.769531 166.03125 225.335938 L 164.0625 230.636719 C 163.898438 231.074219 163.476562 231.347656 163.035156 231.347656 " fill-opacity="1" fill-rule="nonzero"/><path fill="#000000" d="M 162.792969 221.214844 C 162.664062 221.214844 162.535156 221.191406 162.410156 221.148438 L 157.109375 219.175781 C 156.542969 218.964844 156.253906 218.332031 156.464844 217.769531 C 156.675781 217.199219 157.308594 216.914062 157.875 217.121094 L 163.171875 219.09375 C 163.742188 219.304688 164.03125 219.933594 163.820312 220.5 C 163.65625 220.941406 163.234375 221.214844 162.792969 221.214844 " fill-opacity="1" fill-rule="nonzero"/><path fill="#000000" d="M 175.136719 225.804688 C 175.011719 225.804688 174.878906 225.78125 174.753906 225.734375 L 169.457031 223.765625 C 168.886719 223.554688 168.601562 222.925781 168.8125 222.359375 C 169.019531 221.789062 169.652344 221.5 170.21875 221.710938 L 175.519531 223.683594 C 176.085938 223.894531 176.375 224.523438 176.164062 225.089844 C 176 225.535156 175.582031 225.804688 175.136719 225.804688 " fill-opacity="1" fill-rule="nonzero"/><path fill="#000000" d="M 624.003906 185.230469 C 623.402344 185.230469 622.910156 184.742188 622.910156 184.140625 L 622.910156 178.484375 C 622.910156 177.878906 623.402344 177.386719 624.003906 177.386719 C 624.609375 177.386719 625.105469 177.878906 625.105469 178.484375 L 625.105469 184.140625 C 625.105469 184.742188 624.609375 185.230469 624.003906 185.230469 " fill-opacity="1" fill-rule="nonzero"/><path fill="#000000" d="M 624.003906 198.40625 C 623.398438 198.40625 622.914062 197.917969 622.914062 197.3125 L 622.914062 191.65625 C 622.914062 191.050781 623.398438 190.558594 624.003906 190.558594 C 624.609375 190.558594 625.101562 191.050781 625.101562 191.65625 L 625.101562 197.3125 C 625.101562 197.917969 624.609375 198.40625 624.003906 198.40625 " fill-opacity="1" fill-rule="nonzero"/><path fill="#000000" d="M 620.246094 188.992188 L 614.59375 188.992188 C 613.988281 188.992188 613.496094 188.503906 613.496094 187.898438 C 613.496094 187.296875 613.988281 186.804688 614.59375 186.804688 L 620.246094 186.804688 C 620.851562 186.804688 621.339844 187.296875 621.339844 187.898438 C 621.339844 188.503906 620.851562 188.992188 620.246094 188.992188 " fill-opacity="1" fill-rule="nonzero"/><path fill="#000000" d="M 633.417969 188.992188 L 627.765625 188.992188 C 627.160156 188.992188 626.667969 188.503906 626.667969 187.898438 C 626.667969 187.292969 627.160156 186.800781 627.765625 186.800781 L 633.417969 186.800781 C 634.023438 186.800781 634.515625 187.292969 634.515625 187.898438 C 634.515625 188.503906 634.023438 188.992188 633.417969 188.992188 " fill-opacity="1" fill-rule="nonzero"/><path fill="#000000" d="M 201.246094 686.070312 C 201.105469 686.070312 200.957031 686.042969 200.816406 685.984375 C 167.550781 671.789062 142.015625 650.394531 124.921875 622.382812 C 124.605469 621.867188 124.769531 621.191406 125.285156 620.878906 C 125.800781 620.558594 126.476562 620.726562 126.792969 621.242188 C 143.644531 648.851562 168.839844 669.957031 201.679688 683.96875 C 202.234375 684.207031 202.496094 684.851562 202.257812 685.40625 C 202.078125 685.824219 201.675781 686.070312 201.246094 686.070312 " fill-opacity="1" fill-rule="nonzero"/><path fill="#000000" d="M 120.292969 612.6875 C 119.929688 612.6875 119.570312 612.503906 119.363281 612.171875 C 108.402344 594.585938 105.148438 581.042969 105.015625 580.472656 C 104.875 579.882812 105.242188 579.292969 105.832031 579.15625 C 106.421875 579.015625 107.007812 579.382812 107.148438 579.96875 C 107.179688 580.105469 110.464844 593.757812 121.222656 611.011719 C 121.542969 611.523438 121.386719 612.203125 120.871094 612.519531 C 120.691406 612.632812 120.492188 612.6875 120.292969 612.6875 " fill-opacity="1" fill-rule="nonzero"/><path fill="#000000" d="M 206.511719 702.136719 C 206.40625 702.136719 206.292969 702.121094 206.183594 702.089844 C 171.597656 691.210938 148.035156 670.613281 134.363281 655.246094 C 119.542969 638.589844 112.800781 624.285156 112.734375 624.140625 C 112.476562 623.59375 112.714844 622.941406 113.261719 622.6875 C 113.8125 622.429688 114.464844 622.667969 114.71875 623.214844 C 114.785156 623.359375 121.425781 637.425781 136.054688 653.851562 C 149.539062 668.984375 172.761719 689.277344 206.84375 700 C 207.417969 700.179688 207.738281 700.796875 207.558594 701.375 C 207.410156 701.839844 206.980469 702.136719 206.511719 702.136719 " fill-opacity="1" fill-rule="nonzero"/><path fill="#000000" d="M 567.257812 298.191406 C 564.023438 297.984375 560.21875 298.996094 552.617188 301.015625 C 545.761719 302.839844 543.859375 304.0625 543.019531 306.171875 C 541.636719 309.617188 543.699219 313.867188 544.324219 315.140625 C 547.824219 322.351562 554.238281 323.296875 558.46875 326.59375 C 572.152344 337.253906 565.175781 355.351562 576.519531 366.675781 C 587.324219 377.457031 597.425781 364.789062 616.855469 375.070312 C 632.152344 383.167969 630.726562 393.578125 643.203125 398.164062 C 658.433594 403.769531 682.308594 396.238281 691.992188 373.738281 C 698.191406 359.324219 700.496094 320.269531 679.226562 315.246094 C 671.984375 313.535156 665.707031 318.617188 658.65625 319.0625 C 651.605469 319.507812 644.300781 317.15625 639.121094 312.289062 C 634.710938 308.148438 631.832031 302.539062 627.175781 298.679688 C 617.164062 290.394531 604.875 294.21875 595.015625 300.394531 C 593.546875 301.320312 590.152344 304.914062 588.71875 305.023438 C 579.605469 305.734375 577.703125 298.863281 567.257812 298.191406 " fill-opacity="1" fill-rule="nonzero"/><path fill="#7e81c4" d="M 533.613281 402.804688 C 526.324219 447.464844 525.472656 448.121094 524.492188 452.800781 C 524.492188 452.800781 521.597656 465.949219 520.796875 478.621094 C 520.105469 489.613281 522.171875 555.628906 556.289062 570.167969 C 568.605469 575.417969 572.179688 565.765625 598.414062 566.816406 C 625.300781 567.890625 630.757812 577.457031 642.480469 574.105469 C 667.871094 566.847656 676.164062 512.371094 674.765625 478.707031 C 673.625 451.289062 659.984375 425.398438 632.695312 373.617188 C 628.535156 365.730469 621.886719 353.6875 611.171875 352.152344 C 606.253906 351.453125 604.292969 352.207031 584.566406 357.621094 C 563.113281 363.511719 557.667969 357.25 548.460938 363.050781 C 538.941406 369.050781 537.265625 380.460938 533.613281 402.804688 " fill-opacity="1" fill-rule="nonzero"/><path fill="#fffbf2" d="M 572.777344 661.386719 L 572.777344 682.980469 L 583.160156 682.347656 L 585.210938 661.386719 L 572.777344 661.386719 " fill-opacity="1" fill-rule="nonzero"/><path fill="#000000" d="M 573.871094 662.480469 L 573.871094 681.816406 L 582.164062 681.3125 L 584.003906 662.480469 Z M 572.777344 684.078125 C 572.496094 684.078125 572.226562 683.972656 572.027344 683.78125 C 571.804688 683.570312 571.675781 683.285156 571.675781 682.980469 L 571.675781 661.382812 C 571.675781 660.78125 572.171875 660.289062 572.777344 660.289062 L 585.207031 660.289062 C 585.515625 660.289062 585.8125 660.417969 586.019531 660.648438 C 586.226562 660.875 586.332031 661.183594 586.300781 661.492188 L 584.253906 682.453125 C 584.203125 682.988281 583.769531 683.410156 583.230469 683.441406 L 572.839844 684.074219 C 572.820312 684.078125 572.796875 684.078125 572.777344 684.078125 " fill-opacity="1" fill-rule="nonzero"/><path fill="#fffbf2" d="M 584.722656 709.90625 C 580.496094 710.359375 573.574219 710.652344 565.503906 709.265625 C 562.859375 708.808594 561.183594 706.171875 561.910156 703.589844 C 563.933594 696.390625 567.929688 682.980469 571.113281 676.554688 L 573.03125 680.058594 L 574.566406 676.359375 C 574.824219 675.921875 575.28125 675.632812 575.789062 675.585938 L 579.773438 675.214844 C 580.605469 675.136719 581.605469 675.957031 581.746094 676.78125 L 584.375 680.058594 L 585.886719 676.164062 L 588.71875 704.976562 C 588.960938 707.4375 587.183594 709.640625 584.722656 709.90625 " fill-opacity="1" fill-rule="nonzero"/><path fill="#000000" d="M 571.191406 678.992188 C 568.070312 686.179688 564.460938 698.550781 562.960938 703.886719 C 562.695312 704.828125 562.835938 705.804688 563.363281 706.632812 C 563.878906 707.453125 564.726562 708.019531 565.683594 708.183594 C 573.554688 709.539062 580.320312 709.277344 584.605469 708.820312 C 586.457031 708.621094 587.808594 706.945312 587.625 705.082031 L 585.230469 680.734375 C 585.058594 680.953125 584.816406 681.097656 584.535156 681.140625 C 584.148438 681.199219 583.761719 681.046875 583.515625 680.742188 L 580.890625 677.464844 C 580.773438 677.320312 580.699219 677.152344 580.664062 676.96875 C 580.613281 676.679688 580.070312 676.296875 579.871094 676.308594 L 575.890625 676.679688 C 575.75 676.691406 575.617188 676.765625 575.53125 676.871094 L 574.035156 680.480469 C 573.875 680.863281 573.503906 681.128906 573.085938 681.152344 C 572.652344 681.164062 572.269531 680.957031 572.066406 680.585938 Z M 584.722656 709.90625 L 584.730469 709.90625 Z M 577.5 711.378906 C 573.949219 711.378906 569.804688 711.117188 565.3125 710.347656 C 563.742188 710.074219 562.359375 709.144531 561.507812 707.804688 C 560.660156 706.464844 560.425781 704.820312 560.851562 703.292969 C 562.511719 697.378906 566.75 682.886719 570.132812 676.066406 C 570.308594 675.703125 570.679688 675.46875 571.089844 675.457031 C 571.5 675.453125 571.875 675.671875 572.070312 676.03125 L 572.890625 677.527344 L 573.550781 675.941406 C 573.570312 675.890625 573.59375 675.84375 573.621094 675.796875 C 574.0625 675.0625 574.832031 674.574219 575.6875 674.496094 L 579.667969 674.125 C 580.957031 674.007812 582.347656 675.023438 582.746094 676.277344 L 584.039062 677.890625 L 584.863281 675.765625 C 585.042969 675.292969 585.53125 675.015625 586.03125 675.078125 C 586.535156 675.148438 586.925781 675.550781 586.976562 676.054688 L 589.808594 704.871094 C 590.109375 707.921875 587.878906 710.671875 584.839844 711 C 582.859375 711.210938 580.371094 711.378906 577.5 711.378906 " fill-opacity="1" fill-rule="nonzero"/><path fill="#000000" d="M 574.675781 706.488281 C 571.53125 706.488281 568.007812 706.179688 564.523438 705.265625 C 563.929688 705.109375 563.585938 704.507812 563.738281 703.925781 C 563.894531 703.339844 564.496094 702.992188 565.078125 703.144531 C 574.78125 705.695312 585.105469 703.167969 585.210938 703.140625 C 585.800781 702.996094 586.394531 703.351562 586.539062 703.9375 C 586.6875 704.527344 586.328125 705.121094 585.746094 705.265625 C 585.453125 705.339844 580.769531 706.488281 574.675781 706.488281 " fill-opacity="1" fill-rule="nonzero"/><path fill="#000000" d="M 580.59375 695.269531 L 571.109375 695.269531 C 570.507812 695.269531 570.019531 694.777344 570.019531 694.171875 C 570.019531 693.570312 570.507812 693.078125 571.109375 693.078125 L 580.59375 693.078125 C 581.195312 693.078125 581.691406 693.570312 581.691406 694.171875 C 581.691406 694.777344 581.195312 695.269531 580.59375 695.269531 " fill-opacity="1" fill-rule="nonzero"/><path fill="#fffbf2" d="M 649.195312 649.957031 L 652.269531 675.992188 L 662.011719 675.65625 L 662.011719 649.957031 L 649.195312 649.957031 " fill-opacity="1" fill-rule="nonzero"/><path fill="#000000" d="M 650.429688 651.054688 L 653.238281 674.867188 L 660.914062 674.597656 L 660.914062 651.054688 Z M 652.269531 677.089844 C 651.71875 677.089844 651.246094 676.679688 651.183594 676.121094 L 648.109375 650.082031 C 648.074219 649.773438 648.171875 649.460938 648.382812 649.226562 C 648.589844 648.996094 648.886719 648.859375 649.199219 648.859375 L 662.011719 648.859375 C 662.613281 648.859375 663.105469 649.355469 663.105469 649.957031 L 663.105469 675.65625 C 663.105469 676.246094 662.640625 676.730469 662.042969 676.75 L 652.304688 677.089844 C 652.296875 677.089844 652.285156 677.089844 652.269531 677.089844 " fill-opacity="1" fill-rule="nonzero"/><path fill="#fffbf2" d="M 649.957031 669.78125 C 649.957031 669.78125 648.699219 681.34375 649.089844 685.996094 C 649.363281 689.324219 653.933594 699.375 656.503906 704.828125 C 657.566406 707.070312 659.582031 708.503906 661.828125 708.605469 C 664.554688 708.71875 668.359375 708.859375 671.417969 708.863281 C 675.636719 708.863281 678.535156 704.074219 677.03125 699.605469 C 675.640625 695.480469 673.433594 690.3125 669.972656 684.808594 C 667.359375 680.664062 663.542969 669.402344 663.542969 669.402344 L 655.605469 669.402344 L 654.046875 675.996094 L 649.957031 669.78125 " fill-opacity="1" fill-rule="nonzero"/><path fill="#000000" d="M 650.742188 672.972656 C 650.402344 676.703125 649.925781 682.871094 650.179688 685.90625 C 650.371094 688.199219 653.039062 694.921875 657.496094 704.355469 C 658.378906 706.222656 660.054688 707.429688 661.871094 707.507812 C 664.53125 707.621094 668.351562 707.761719 671.425781 707.765625 C 672.902344 707.765625 674.234375 707.039062 675.183594 705.722656 C 676.355469 704.089844 676.660156 701.933594 675.992188 699.957031 C 674.296875 694.917969 671.953125 690.019531 669.039062 685.394531 C 666.75 681.765625 663.660156 673.109375 662.753906 670.496094 L 656.46875 670.496094 L 655.113281 676.246094 C 655.011719 676.671875 654.667969 676.996094 654.238281 677.070312 C 653.804688 677.148438 653.367188 676.960938 653.128906 676.597656 Z M 671.425781 709.957031 C 671.425781 709.957031 671.425781 709.957031 671.417969 709.957031 C 668.3125 709.953125 664.457031 709.8125 661.777344 709.699219 C 659.144531 709.582031 656.746094 707.894531 655.515625 705.292969 C 652.238281 698.359375 648.273438 689.394531 648 686.089844 C 647.605469 681.382812 648.8125 670.140625 648.863281 669.664062 C 648.910156 669.203125 649.246094 668.824219 649.695312 668.714844 C 650.144531 668.609375 650.613281 668.792969 650.867188 669.175781 L 653.558594 673.269531 L 654.539062 669.152344 C 654.652344 668.65625 655.09375 668.308594 655.601562 668.308594 L 663.539062 668.308594 C 664.007812 668.308594 664.425781 668.605469 664.574219 669.050781 C 664.613281 669.160156 668.378906 680.238281 670.890625 684.222656 C 673.898438 688.996094 676.320312 694.054688 678.070312 699.253906 C 678.960938 701.902344 678.546875 704.796875 676.960938 707.003906 C 675.609375 708.882812 673.597656 709.957031 671.425781 709.957031 " fill-opacity="1" fill-rule="nonzero"/><path fill="#000000" d="M 652.707031 691.277344 Z M 665.371094 704.996094 C 661.796875 704.996094 658.5625 702.9375 656.914062 699.613281 C 653.542969 692.8125 652.761719 691.425781 652.578125 691.15625 C 652.230469 690.765625 652.207031 690.160156 652.546875 689.738281 C 652.929688 689.269531 653.621094 689.199219 654.089844 689.582031 C 654.355469 689.792969 654.582031 689.980469 658.875 698.640625 C 660.152344 701.210938 662.636719 702.808594 665.371094 702.808594 C 665.371094 702.808594 665.371094 702.808594 665.375 702.808594 L 674.417969 702.800781 C 675.019531 702.800781 675.507812 703.289062 675.511719 703.894531 C 675.511719 704.5 675.023438 704.988281 674.417969 704.992188 L 665.378906 704.996094 C 665.375 704.996094 665.371094 704.996094 665.371094 704.996094 " fill-opacity="1" fill-rule="nonzero"/><path fill="#000000" d="M 670.242188 695.59375 L 661.550781 695.59375 C 660.949219 695.59375 660.457031 695.101562 660.457031 694.496094 C 660.457031 693.890625 660.949219 693.398438 661.550781 693.398438 L 670.242188 693.398438 C 670.847656 693.398438 671.335938 693.890625 671.335938 694.496094 C 671.335938 695.101562 670.847656 695.59375 670.242188 695.59375 " fill-opacity="1" fill-rule="nonzero"/><path fill="#000000" d="M 556.082031 445.480469 C 556.082031 445.480469 557.117188 524.945312 560.457031 576.675781 C 563.796875 628.40625 570.378906 667.964844 570.378906 667.964844 C 570.378906 667.964844 581.714844 672.035156 589.152344 669.902344 C 589.152344 669.902344 595.3125 624.523438 596.714844 609.183594 C 598.109375 593.84375 594.394531 586.234375 594.082031 573.679688 C 593.769531 561.128906 599.492188 505.699219 599.492188 505.699219 C 599.492188 505.699219 642.207031 631.003906 647.09375 658.679688 C 647.09375 658.679688 657.441406 660.4375 664.730469 656.449219 C 664.730469 656.449219 664.957031 607.171875 663.925781 599.558594 C 662.011719 585.453125 650.992188 571.566406 649.011719 556.582031 C 647.035156 541.597656 645.886719 503.992188 640.4375 481.441406 C 634.988281 458.890625 624.296875 433.546875 624.296875 433.546875 L 556.082031 445.480469 " fill-opacity="1" fill-rule="nonzero"/><path fill="#fffbf2" d="M 628.855469 475.296875 C 628.714844 475.296875 628.578125 475.269531 628.441406 475.214844 C 613.761719 469.199219 609.535156 455.234375 609.367188 454.644531 C 609.199219 454.0625 609.53125 453.457031 610.109375 453.285156 C 610.695312 453.113281 611.296875 453.449219 611.46875 454.027344 C 611.511719 454.164062 615.59375 467.582031 629.273438 473.1875 C 629.832031 473.414062 630.101562 474.054688 629.871094 474.617188 C 629.703125 475.042969 629.292969 475.296875 628.855469 475.296875 " fill-opacity="1" fill-rule="nonzero"/><path fill="#fffbf2" d="M 641.761719 512.324219 C 641.21875 512.324219 640.746094 511.921875 640.675781 511.371094 C 635.808594 473.960938 621.230469 448.984375 621.085938 448.734375 C 620.777344 448.214844 620.953125 447.542969 621.472656 447.234375 C 621.988281 446.925781 622.664062 447.097656 622.972656 447.617188 C 623.121094 447.871094 637.917969 473.207031 642.847656 511.089844 C 642.929688 511.6875 642.5 512.238281 641.902344 512.316406 C 641.855469 512.320312 641.808594 512.324219 641.761719 512.324219 " fill-opacity="1" fill-rule="nonzero"/><path fill="#fffbf2" d="M 423.558594 362.441406 L 442.171875 370.183594 L 448.972656 384.808594 C 453.042969 387.523438 457.105469 389.730469 461.128906 391.503906 C 460.394531 393.074219 459.667969 394.640625 458.980469 396.226562 C 457.863281 398.800781 456.78125 401.394531 455.714844 403.992188 C 447.578125 395.894531 444.449219 388.3125 444.449219 388.3125 C 432.960938 387.640625 432.675781 378.78125 433.246094 376.488281 C 433.8125 374.191406 432.765625 371.585938 427.488281 368.113281 C 421.710938 364.320312 423.558594 362.441406 423.558594 362.441406 " fill-opacity="1" fill-rule="nonzero"/><path fill="#000000" d="M 424.640625 364.078125 C 425.046875 364.777344 426.003906 365.828125 428.089844 367.199219 C 433.125 370.507812 435.101562 373.542969 434.304688 376.75 C 434.09375 377.625 433.90625 380.71875 435.835938 383.339844 C 437.5625 385.679688 440.480469 386.980469 444.511719 387.214844 C 444.929688 387.238281 445.300781 387.503906 445.460938 387.890625 C 445.492188 387.960938 448.3125 394.660156 455.339844 402.035156 C 456.148438 400.074219 457.046875 397.921875 457.972656 395.789062 C 458.535156 394.503906 459.109375 393.246094 459.667969 392.046875 C 455.8125 390.28125 452.015625 388.15625 448.363281 385.722656 C 448.195312 385.609375 448.0625 385.453125 447.976562 385.273438 L 441.359375 371.03125 Z M 455.714844 405.085938 C 455.429688 405.085938 455.148438 404.972656 454.945312 404.769531 C 447.992188 397.855469 444.652344 391.367188 443.714844 389.355469 C 439.339844 388.972656 436.097656 387.386719 434.074219 384.640625 C 431.890625 381.675781 431.742188 377.984375 432.179688 376.222656 C 432.519531 374.855469 432.339844 372.617188 426.886719 369.03125 C 423.953125 367.105469 422.375 365.28125 422.195312 363.613281 C 422.070312 362.453125 422.65625 361.792969 422.773438 361.675781 C 423.085938 361.355469 423.5625 361.253906 423.976562 361.429688 L 442.59375 369.171875 C 442.84375 369.273438 443.050781 369.472656 443.164062 369.722656 L 449.835938 384.066406 C 453.625 386.574219 457.574219 388.738281 461.570312 390.5 C 461.839844 390.621094 462.050781 390.84375 462.152344 391.121094 C 462.261719 391.398438 462.246094 391.699219 462.121094 391.96875 C 461.429688 393.449219 460.691406 395.035156 459.984375 396.660156 C 458.816406 399.351562 457.691406 402.070312 456.726562 404.40625 C 456.589844 404.746094 456.289062 404.992188 455.933594 405.066406 C 455.859375 405.078125 455.789062 405.085938 455.714844 405.085938 " fill-opacity="1" fill-rule="nonzero"/><path fill="#fffbf2" d="M 548.308594 357.664062 C 548.308594 357.664062 573.800781 354.019531 598.902344 353.289062 C 598.902344 353.289062 630.375 435.402344 630.371094 440.945312 C 630.367188 446.484375 616.933594 453.570312 598.902344 449.050781 C 580.867188 444.527344 557.957031 444.078125 545.074219 447.089844 C 525.773438 451.601562 548.308594 357.664062 548.308594 357.664062 " fill-opacity="1" fill-rule="nonzero"/><path fill="#000000" d="M 565.332031 444.082031 C 576.570312 444.082031 588.9375 445.425781 599.167969 447.988281 C 611.441406 451.0625 621.832031 448.625 626.683594 444.84375 C 628.328125 443.558594 629.273438 442.136719 629.277344 440.941406 C 629.277344 437.054688 610.769531 387.347656 598.15625 354.410156 C 576.011719 355.109375 553.515625 358.0625 549.203125 358.648438 C 544.011719 380.519531 532.964844 436.589844 541.492188 445.175781 C 542.390625 446.074219 543.445312 446.34375 544.824219 446.023438 C 550.414062 444.71875 557.605469 444.082031 565.332031 444.082031 Z M 610.226562 451.601562 C 606.703125 451.601562 602.816406 451.164062 598.632812 450.113281 C 581.671875 445.863281 558.75 445.023438 545.320312 448.15625 C 543.226562 448.648438 541.363281 448.152344 539.941406 446.71875 C 528.691406 435.398438 546.480469 360.589844 547.246094 357.414062 C 547.347656 356.972656 547.714844 356.644531 548.15625 356.582031 C 548.410156 356.546875 574 352.917969 598.867188 352.195312 C 599.324219 352.167969 599.753906 352.464844 599.921875 352.898438 C 603.152344 361.320312 631.46875 435.359375 631.464844 440.945312 C 631.464844 442.84375 630.246094 444.84375 628.035156 446.574219 C 624.617188 449.230469 618.398438 451.601562 610.226562 451.601562 " fill-opacity="1" fill-rule="nonzero"/><path fill="#7e81c4" d="M 453.957031 385.15625 L 442.207031 392.609375 C 442.207031 392.609375 454.597656 421.265625 481.5625 430.019531 C 508.53125 438.773438 534.019531 413.964844 534.019531 413.964844 L 531.699219 467.160156 C 531.699219 467.160156 544.726562 474.882812 544.726562 474.203125 C 544.726562 473.519531 550.421875 355.535156 550.421875 355.535156 C 550.421875 355.535156 539.90625 355.703125 535.21875 362.375 C 530.527344 369.050781 512.773438 396.640625 492.375 396.972656 C 471.96875 397.308594 453.957031 385.15625 453.957031 385.15625 " fill-opacity="1" fill-rule="nonzero"/><path fill="#000000" d="M 518.773438 379.757812 L 565.109375 374.984375 C 566.667969 374.984375 568.136719 376.285156 568.398438 377.898438 L 579.585938 446.976562 C 579.847656 448.585938 578.800781 449.886719 577.242188 449.886719 L 528.101562 447.476562 C 526.550781 447.476562 524.917969 448.585938 524.65625 446.976562 L 513.464844 377.898438 C 513.207031 376.285156 517.214844 379.757812 518.773438 379.757812 " fill-opacity="1" fill-rule="nonzero"/><path fill="#000000" d="M 528.105469 446.382812 L 577.296875 448.796875 C 577.648438 448.792969 577.988281 448.648438 578.21875 448.375 C 578.484375 448.066406 578.582031 447.632812 578.507812 447.148438 L 567.320312 378.074219 C 567.144531 377.011719 566.160156 376.105469 565.15625 376.078125 L 518.886719 380.851562 C 518.84375 380.855469 518.808594 380.855469 518.773438 380.855469 C 517.859375 380.855469 516.8125 380.289062 515.3125 379.417969 C 515.148438 379.324219 514.964844 379.21875 514.773438 379.109375 L 525.730469 446.742188 C 525.933594 446.722656 526.230469 446.660156 526.445312 446.613281 C 526.941406 446.503906 527.503906 446.382812 528.105469 446.382812 Z M 577.246094 450.984375 L 528.050781 448.570312 C 527.742188 448.574219 527.316406 448.667969 526.914062 448.75 C 526.105469 448.929688 525.1875 449.128906 524.425781 448.609375 C 523.96875 448.296875 523.683594 447.808594 523.578125 447.148438 L 512.386719 378.074219 C 512.242188 377.195312 512.726562 376.757812 512.9375 376.613281 C 513.8125 376.011719 514.847656 376.613281 516.414062 377.527344 C 517.082031 377.914062 518.300781 378.621094 518.738281 378.660156 L 565 373.894531 C 565.035156 373.890625 565.070312 373.890625 565.113281 373.890625 C 567.210938 373.890625 569.132812 375.574219 569.480469 377.722656 L 580.667969 446.800781 C 580.847656 447.90625 580.566406 449.003906 579.890625 449.796875 C 579.234375 450.5625 578.296875 450.984375 577.246094 450.984375 " fill-opacity="1" fill-rule="nonzero"/><path fill="#fffbf2" d="M 514.28125 374.980469 L 563.582031 374.980469 C 565.136719 374.980469 566.609375 376.285156 566.867188 377.898438 L 578.054688 446.96875 C 578.316406 448.585938 577.265625 449.886719 575.710938 449.886719 L 526.414062 449.886719 C 524.859375 449.886719 523.386719 448.585938 523.128906 446.96875 L 511.9375 377.898438 C 511.675781 376.285156 512.730469 374.980469 514.28125 374.980469 " fill-opacity="1" fill-rule="nonzero"/><path fill="#000000" d="M 514.28125 376.078125 C 513.875 376.078125 513.539062 376.222656 513.300781 376.496094 C 513.042969 376.804688 512.941406 377.234375 513.019531 377.722656 L 524.210938 446.796875 C 524.382812 447.875 525.394531 448.792969 526.417969 448.792969 L 575.714844 448.792969 C 576.117188 448.792969 576.460938 448.644531 576.691406 448.371094 C 576.953125 448.0625 577.054688 447.628906 576.972656 447.148438 L 565.785156 378.070312 C 565.613281 376.988281 564.597656 376.078125 563.582031 376.078125 Z M 575.714844 450.984375 L 526.417969 450.984375 C 524.3125 450.984375 522.390625 449.296875 522.046875 447.148438 L 510.855469 378.070312 C 510.679688 376.960938 510.960938 375.867188 511.632812 375.078125 C 512.289062 374.304688 513.230469 373.886719 514.28125 373.886719 L 563.582031 373.886719 C 565.679688 373.886719 567.597656 375.570312 567.949219 377.722656 L 579.140625 446.796875 C 579.320312 447.910156 579.035156 449 578.359375 449.792969 C 577.703125 450.558594 576.765625 450.984375 575.714844 450.984375 " fill-opacity="1" fill-rule="nonzero"/><path fill="#fffbf2" d="M 574.546875 406.253906 L 574.011719 412.753906 L 554.269531 409.167969 C 554.269531 409.167969 553.816406 409.824219 553.539062 410.871094 C 553.175781 412.285156 553.132812 414.417969 554.941406 416.675781 C 555.804688 417.746094 559.210938 417.777344 558.949219 419.90625 C 558.714844 421.765625 566.433594 423.214844 573.109375 424.457031 C 580.582031 425.84375 579.941406 415.191406 578.09375 409.738281 C 576.65625 405.488281 574.546875 406.253906 574.546875 406.253906 " fill-opacity="1" fill-rule="nonzero"/><path fill="#000000" d="M 560.046875 419.882812 C 561.101562 421.109375 569.015625 422.582031 573.308594 423.378906 C 574.867188 423.667969 576.007812 423.363281 576.804688 422.449219 C 578.773438 420.171875 578.46875 414.261719 577.054688 410.09375 C 576.554688 408.609375 575.992188 407.863281 575.539062 407.53125 L 575.101562 412.847656 C 575.078125 413.152344 574.921875 413.4375 574.679688 413.628906 C 574.433594 413.816406 574.121094 413.890625 573.816406 413.835938 L 554.859375 410.390625 C 554.773438 410.601562 554.675781 410.855469 554.597656 411.152344 C 554.164062 412.832031 554.566406 414.460938 555.792969 415.988281 C 555.929688 416.152344 556.597656 416.414062 556.992188 416.5625 C 558.203125 417.027344 560.207031 417.800781 560.046875 419.882812 Z M 574.363281 425.675781 C 573.917969 425.675781 573.433594 425.632812 572.90625 425.53125 C 562.191406 423.546875 557.53125 422.398438 557.859375 419.773438 C 557.90625 419.378906 557.550781 419.128906 556.207031 418.609375 C 555.410156 418.300781 554.585938 417.984375 554.082031 417.359375 C 551.984375 414.75 552.050781 412.242188 552.476562 410.601562 C 552.792969 409.394531 553.308594 408.625 553.367188 408.542969 C 553.613281 408.191406 554.039062 408.015625 554.460938 408.089844 L 573.015625 411.464844 L 573.449219 406.164062 C 573.484375 405.742188 573.765625 405.371094 574.171875 405.222656 C 574.328125 405.164062 575.183594 404.90625 576.253906 405.414062 C 577.46875 406 578.4375 407.339844 579.128906 409.390625 C 580.472656 413.351562 581.40625 420.484375 578.457031 423.882812 C 577.707031 424.75 576.421875 425.675781 574.363281 425.675781 " fill-opacity="1" fill-rule="nonzero"/><path fill="#7e81c4" d="M 577.011719 424.203125 L 580.96875 418.183594 C 580.96875 418.183594 600.605469 422.164062 609.667969 418.183594 C 625.5 411.226562 622.507812 386.921875 619.8125 374.824219 C 617.121094 362.726562 611.167969 352.15625 611.167969 352.15625 C 611.167969 352.15625 625.710938 360.375 635.574219 378.445312 C 645.4375 396.515625 648.648438 436.953125 615.660156 444.257812 C 594.082031 449.042969 577.011719 424.203125 577.011719 424.203125 " fill-opacity="1" fill-rule="nonzero"/><path fill="#fffbf2" d="M 632.53125 436.6875 C 632.222656 436.6875 631.910156 436.554688 631.691406 436.292969 C 631.304688 435.828125 631.367188 435.140625 631.828125 434.75 C 641.71875 426.433594 641.058594 408.125 641.046875 407.945312 C 641.023438 407.339844 641.496094 406.828125 642.097656 406.804688 C 642.714844 406.78125 643.214844 407.246094 643.242188 407.851562 C 643.273438 408.644531 643.957031 427.414062 633.234375 436.429688 C 633.03125 436.601562 632.785156 436.6875 632.53125 436.6875 " fill-opacity="1" fill-rule="nonzero"/><path fill="#fffbf2" d="M 571.652344 322.949219 C 571.164062 323.242188 570.539062 323.035156 570.320312 322.503906 C 569.296875 319.992188 567.660156 315.117188 564.300781 314.34375 C 560.003906 313.351562 553.039062 312.070312 552.441406 315.46875 C 551.914062 318.453125 552.53125 323.597656 549.394531 327.324219 C 549.09375 327.683594 549.355469 328.257812 549.726562 328.535156 L 551.699219 330.203125 C 552.117188 330.519531 552.472656 331.578125 552.523438 332.105469 C 552.679688 333.722656 552.886719 337.164062 553.449219 337.605469 C 554.53125 338.472656 559.972656 338.140625 559.972656 338.140625 L 564.339844 353.136719 C 564.503906 353.710938 564.167969 354.304688 563.597656 354.449219 L 558.40625 356.214844 C 558.40625 356.214844 562.570312 362.058594 575.597656 361.175781 C 583.921875 360.613281 590.011719 354.746094 590.011719 354.746094 C 590.011719 354.746094 573.828125 352.449219 571.640625 333.3125 C 571.597656 332.890625 571.78125 332.476562 572.113281 332.226562 C 573.40625 331.253906 576.882812 328.394531 576.273438 325.496094 C 575.628906 322.421875 573.328125 321.949219 571.652344 322.949219 " fill-opacity="1" fill-rule="nonzero"/><path fill="#000000" d="M 571.65625 322.945312 L 571.667969 322.945312 Z M 554.273438 336.902344 Z M 560.457031 356.671875 C 562.382812 358.183594 566.929688 360.660156 575.523438 360.078125 C 580.914062 359.71875 585.375 356.964844 587.640625 355.273438 C 582.953125 353.808594 572.316406 348.820312 570.558594 333.433594 C 570.464844 332.632812 570.816406 331.828125 571.464844 331.34375 C 572.457031 330.59375 575.679688 327.96875 575.207031 325.71875 C 574.984375 324.667969 574.539062 323.972656 573.921875 323.699219 C 573.414062 323.472656 572.792969 323.542969 572.21875 323.886719 C 571.710938 324.1875 571.097656 324.257812 570.539062 324.070312 C 569.984375 323.882812 569.539062 323.460938 569.3125 322.910156 C 569.222656 322.691406 569.128906 322.449219 569.027344 322.199219 C 568.105469 319.875 566.566406 315.984375 564.0625 315.40625 C 558.75 314.183594 555.371094 314.015625 554.027344 314.90625 C 553.734375 315.101562 553.578125 315.332031 553.519531 315.65625 C 553.402344 316.34375 553.34375 317.214844 553.28125 318.132812 C 553.082031 321.078125 552.835938 324.71875 550.476562 327.730469 L 552.414062 329.359375 C 553.167969 329.933594 553.5625 331.414062 553.617188 331.996094 C 553.644531 332.246094 553.667969 332.546875 553.699219 332.867188 C 553.78125 333.863281 553.976562 336.109375 554.226562 336.796875 C 554.914062 337.070312 557.476562 337.191406 559.910156 337.039062 C 560.410156 337.003906 560.886719 337.335938 561.03125 337.828125 L 565.390625 352.832031 C 565.558594 353.386719 565.484375 353.996094 565.195312 354.5 C 564.914062 354.992188 564.464844 355.34375 563.917969 355.492188 Z M 572.984375 362.363281 C 561.589844 362.363281 557.6875 357.089844 557.515625 356.847656 C 557.3125 356.566406 557.257812 356.203125 557.367188 355.875 C 557.472656 355.550781 557.730469 355.285156 558.054688 355.175781 L 563.25 353.410156 C 563.273438 353.402344 563.304688 353.390625 563.332031 353.382812 L 559.171875 339.273438 C 556.949219 339.367188 553.851562 339.320312 552.769531 338.460938 C 552.046875 337.890625 551.824219 336.609375 551.515625 333.054688 C 551.488281 332.746094 551.460938 332.453125 551.4375 332.207031 C 551.402344 331.871094 551.160156 331.207031 551.011719 331.042969 L 549.023438 329.367188 C 548.578125 329.035156 548.25 328.46875 548.183594 327.898438 C 548.128906 327.425781 548.265625 326.96875 548.5625 326.617188 C 550.679688 324.09375 550.910156 320.707031 551.09375 317.988281 C 551.160156 317.007812 551.222656 316.082031 551.363281 315.277344 C 551.523438 314.363281 552.027344 313.601562 552.816406 313.082031 C 554.761719 311.789062 558.386719 311.847656 564.550781 313.269531 C 568.179688 314.105469 569.914062 318.488281 571.066406 321.390625 L 571.273438 321.90625 C 572.417969 321.285156 573.695312 321.207031 574.796875 321.6875 C 576.078125 322.25 576.984375 323.519531 577.351562 325.269531 C 578.042969 328.570312 574.78125 331.589844 572.777344 333.097656 C 572.75 333.113281 572.734375 333.152344 572.738281 333.183594 C 574.792969 351.214844 589.546875 353.566406 590.175781 353.660156 C 590.589844 353.71875 590.933594 354.007812 591.058594 354.40625 C 591.1875 354.804688 591.078125 355.242188 590.777344 355.53125 C 590.515625 355.78125 584.300781 361.683594 575.675781 362.269531 C 574.738281 362.332031 573.835938 362.363281 572.984375 362.363281 " fill-opacity="1" fill-rule="nonzero"/><path fill="#fffbf2" d="M 584.671875 142.523438 C 588.21875 142.523438 591.382812 145.734375 591.734375 149.695312 L 596.082031 199.027344 C 596.429688 202.988281 593.835938 206.199219 590.285156 206.199219 L 472.503906 206.199219 L 446.042969 231.632812 L 451.074219 206.199219 L 431.34375 206.199219 C 427.792969 206.199219 424.636719 202.988281 424.289062 199.027344 L 419.9375 149.695312 C 419.589844 145.734375 422.183594 142.523438 425.730469 142.523438 L 584.671875 142.523438 " fill-opacity="1" fill-rule="nonzero"/><path fill="#000000" d="M 446.011719 234.011719 C 445.742188 234.011719 445.46875 233.945312 445.21875 233.804688 C 444.574219 233.457031 444.242188 232.730469 444.398438 232.011719 L 449.722656 207.292969 L 431.351562 207.292969 C 427.25 207.292969 423.589844 203.628906 423.195312 199.125 L 418.847656 149.789062 C 418.640625 147.441406 419.355469 145.1875 420.808594 143.601562 C 422.089844 142.199219 423.84375 141.425781 425.738281 141.425781 L 480.539062 141.125 C 480.539062 141.125 480.539062 141.125 480.542969 141.125 C 481.148438 141.125 481.636719 141.609375 481.640625 142.214844 C 481.644531 142.816406 481.15625 143.3125 480.550781 143.316406 L 425.738281 143.617188 C 424.460938 143.617188 423.289062 144.140625 422.421875 145.082031 C 421.382812 146.21875 420.878906 147.859375 421.03125 149.597656 L 425.378906 198.929688 C 425.679688 202.335938 428.359375 205.101562 431.351562 205.101562 L 452.433594 205.101562 L 446.925781 230.683594 L 472 205.828125 L 590.277344 205.101562 C 591.558594 205.101562 592.734375 204.582031 593.597656 203.636719 C 594.636719 202.503906 595.144531 200.859375 594.992188 199.125 L 590.640625 149.789062 C 590.339844 146.382812 587.664062 143.617188 584.675781 143.617188 L 494.152344 143.800781 L 494.148438 143.800781 C 493.542969 143.800781 493.054688 143.3125 493.054688 142.707031 C 493.054688 142.101562 493.542969 141.609375 494.144531 141.609375 L 584.671875 141.425781 C 588.773438 141.425781 592.429688 145.09375 592.824219 149.597656 L 597.175781 198.929688 C 597.378906 201.277344 596.664062 203.53125 595.214844 205.117188 C 593.929688 206.523438 592.183594 207.292969 590.285156 207.292969 L 472.90625 208.011719 L 447.167969 233.53125 C 446.847656 233.847656 446.433594 234.011719 446.011719 234.011719 " fill-opacity="1" fill-rule="nonzero"/><path fill="#a1a3d4" d="M 572.8125 163.898438 L 443.578125 163.898438 C 441.71875 163.898438 440.046875 162.394531 439.847656 160.542969 C 439.652344 158.691406 440.996094 157.1875 442.851562 157.1875 L 572.089844 157.1875 C 573.949219 157.1875 575.617188 158.691406 575.816406 160.542969 C 576.015625 162.394531 574.671875 163.898438 572.8125 163.898438 " fill-opacity="1" fill-rule="nonzero"/><path fill="#cbcce7" d="M 574.363281 178.359375 L 445.121094 178.359375 C 443.261719 178.359375 441.597656 176.855469 441.398438 175.003906 C 441.203125 173.148438 442.542969 171.644531 444.402344 171.644531 L 573.640625 171.644531 C 575.496094 171.644531 577.164062 173.148438 577.363281 175.003906 C 577.566406 176.855469 576.222656 178.359375 574.363281 178.359375 " fill-opacity="1" fill-rule="nonzero"/><path fill="#cbcce7" d="M 575.910156 192.808594 L 446.679688 192.808594 C 444.820312 192.808594 443.148438 191.304688 442.949219 189.457031 C 442.753906 187.597656 444.097656 186.097656 445.957031 186.097656 L 575.195312 186.097656 C 577.050781 186.097656 578.714844 187.597656 578.917969 189.457031 C 579.121094 191.304688 577.769531 192.808594 575.910156 192.808594 " fill-opacity="1" fill-rule="nonzero"/><path fill="#fffbf2" d="M 677.734375 271.605469 C 680.925781 271.652344 683.371094 269.117188 683.191406 265.941406 L 680.921875 226.417969 C 680.738281 223.242188 678.007812 220.640625 674.8125 220.589844 L 571.28125 218.507812 C 568.089844 218.464844 561.625 220.804688 561.808594 223.976562 L 561.898438 264.25 C 562.082031 267.421875 564.820312 270.03125 568.015625 270.074219 L 580.753906 269.894531 L 586.949219 290.667969 L 598.613281 270.261719 L 677.734375 271.605469 " fill-opacity="1" fill-rule="nonzero"/><path fill="#000000" d="M 582.710938 268.789062 L 587.359375 287.742188 L 597.984375 269.152344 L 598.636719 269.164062 L 673.335938 270.621094 C 673.363281 270.621094 673.390625 270.621094 673.414062 270.621094 C 675.339844 270.621094 677.722656 269.648438 678.976562 268.335938 C 679.613281 267.671875 679.914062 266.992188 679.878906 266.3125 L 679.828125 226.414062 C 679.679688 223.871094 677.421875 221.722656 674.796875 221.6875 L 569.078125 219.96875 C 569.050781 219.96875 569.019531 219.96875 568.984375 219.96875 C 567.039062 219.96875 564.835938 220.804688 563.710938 221.980469 C 563.132812 222.578125 562.863281 223.230469 562.902344 223.914062 L 563 264.246094 C 563.144531 266.789062 565.402344 268.9375 568.03125 268.972656 Z M 586.546875 293.597656 L 580.996094 271 L 568.03125 271.167969 C 564.25 271.113281 561.019531 268.039062 560.804688 264.308594 L 560.714844 223.980469 C 560.640625 222.742188 561.128906 221.507812 562.128906 220.464844 C 563.945312 218.566406 566.96875 217.738281 569.113281 217.777344 L 674.828125 219.496094 C 678.578125 219.546875 681.804688 222.621094 682.015625 226.351562 L 682.0625 266.25 C 682.136719 267.484375 681.617188 268.75 680.5625 269.851562 C 678.855469 271.628906 675.898438 272.84375 673.300781 272.8125 L 599.242188 271.367188 L 586.546875 293.597656 " fill-opacity="1" fill-rule="nonzero"/><path fill="#fffbf2" d="M 579.222656 251.429688 L 666.425781 252.652344 L 579.222656 251.429688 " fill-opacity="1" fill-rule="nonzero"/><path fill="#000000" d="M 666.425781 253.746094 C 666.414062 253.746094 666.414062 253.746094 666.410156 253.746094 L 579.210938 252.53125 C 578.601562 252.519531 578.117188 252.023438 578.128906 251.417969 C 578.136719 250.820312 578.625 250.339844 579.222656 250.339844 C 579.230469 250.339844 579.230469 250.339844 579.238281 250.339844 L 666.4375 251.550781 C 667.046875 251.558594 667.53125 252.058594 667.519531 252.664062 C 667.507812 253.265625 667.023438 253.746094 666.425781 253.746094 " fill-opacity="1" fill-rule="nonzero"/><path fill="#fffbf2" d="M 647.527344 240.824219 L 665.761719 241.074219 L 647.527344 240.824219 " fill-opacity="1" fill-rule="nonzero"/><path fill="#000000" d="M 665.761719 242.171875 C 665.757812 242.171875 665.75 242.171875 665.75 242.171875 L 647.515625 241.917969 C 646.90625 241.910156 646.421875 241.414062 646.433594 240.804688 C 646.445312 240.207031 646.929688 239.722656 647.527344 239.722656 C 647.535156 239.722656 647.535156 239.722656 647.542969 239.722656 L 665.78125 239.980469 C 666.382812 239.988281 666.867188 240.484375 666.859375 241.09375 C 666.851562 241.691406 666.363281 242.171875 665.761719 242.171875 " fill-opacity="1" fill-rule="nonzero"/><path fill="#fffbf2" d="M 578.558594 239.859375 L 635.878906 240.660156 L 578.558594 239.859375 " fill-opacity="1" fill-rule="nonzero"/><path fill="#000000" d="M 635.878906 241.757812 C 635.871094 241.757812 635.863281 241.757812 635.863281 241.757812 L 578.546875 240.957031 C 577.9375 240.949219 577.453125 240.449219 577.464844 239.84375 C 577.476562 239.246094 577.957031 238.765625 578.558594 238.765625 C 578.566406 238.765625 578.566406 238.765625 578.574219 238.765625 L 635.890625 239.566406 C 636.492188 239.574219 636.976562 240.070312 636.96875 240.675781 C 636.960938 241.273438 636.46875 241.757812 635.878906 241.757812 " fill-opacity="1" fill-rule="nonzero"/><path fill="#7e81c4" d="M 175.839844 653.960938 L 429.824219 653.960938 C 440.773438 653.960938 448.519531 645.113281 447.144531 634.203125 L 384.605469 140.085938 C 383.222656 129.171875 373.230469 120.328125 362.285156 120.328125 L 121.050781 117.511719 C 93.359375 117.511719 89.605469 129.171875 90.984375 140.085938 L 153.523438 634.203125 C 154.90625 645.113281 164.898438 653.960938 175.839844 653.960938 " fill-opacity="1" fill-rule="nonzero"/><path fill="#fffbf2" d="M 191.125 653.960938 L 445.109375 653.960938 C 456.054688 653.960938 463.808594 645.085938 462.425781 634.140625 L 399.890625 138.445312 C 398.507812 127.5 388.515625 118.625 377.570312 118.625 L 123.585938 118.625 C 112.640625 118.625 104.886719 127.5 106.269531 138.445312 L 168.808594 634.140625 C 170.1875 645.085938 180.183594 653.960938 191.125 653.960938 " fill-opacity="1" fill-rule="nonzero"/><path fill="#000000" d="M 132.382812 356.027344 C 131.835938 356.027344 131.363281 355.621094 131.296875 355.0625 L 105.179688 138.582031 C 104.472656 132.945312 106.015625 127.640625 109.53125 123.652344 C 113.011719 119.703125 118.003906 117.53125 123.585938 117.53125 L 153.0625 117.53125 C 153.667969 117.53125 154.160156 118.023438 154.160156 118.628906 C 154.160156 119.234375 153.667969 119.722656 153.0625 119.722656 L 123.585938 119.722656 C 118.640625 119.722656 114.234375 121.636719 111.175781 125.105469 C 108.082031 128.613281 106.722656 133.304688 107.355469 138.3125 L 133.472656 354.800781 C 133.542969 355.402344 133.113281 355.949219 132.515625 356.023438 C 132.46875 356.027344 132.425781 356.027344 132.382812 356.027344 " fill-opacity="1" fill-rule="nonzero"/><path fill="#000000" d="M 338.441406 120.09375 L 171.132812 119.722656 C 170.53125 119.722656 170.039062 119.234375 170.042969 118.628906 C 170.042969 118.019531 170.53125 117.53125 171.136719 117.53125 C 171.136719 117.53125 171.136719 117.53125 171.140625 117.53125 L 338.445312 117.898438 C 339.050781 117.902344 339.542969 118.394531 339.542969 119 C 339.539062 119.605469 339.050781 120.09375 338.441406 120.09375 " fill-opacity="1" fill-rule="nonzero"/><path fill="#000000" d="M 451.636719 547.027344 C 451.089844 547.027344 450.621094 546.621094 450.550781 546.066406 L 440.230469 461.691406 C 440.15625 461.089844 440.582031 460.542969 441.183594 460.46875 C 441.785156 460.402344 442.332031 460.824219 442.40625 461.421875 L 452.726562 545.800781 C 452.800781 546.398438 452.371094 546.945312 451.769531 547.023438 C 451.722656 547.023438 451.679688 547.027344 451.636719 547.027344 " fill-opacity="1" fill-rule="nonzero"/><path fill="#000000" d="M 347.648438 655.054688 L 260.304688 655.054688 C 259.699219 655.054688 259.207031 654.566406 259.207031 653.960938 C 259.207031 653.355469 259.699219 652.867188 260.304688 652.867188 L 347.648438 652.867188 C 348.25 652.867188 348.742188 653.355469 348.742188 653.960938 C 348.742188 654.566406 348.25 655.054688 347.648438 655.054688 " fill-opacity="1" fill-rule="nonzero"/><path fill="#000000" d="M 216.871094 655.054688 L 191.125 655.054688 C 179.664062 655.054688 169.164062 645.734375 167.71875 634.277344 L 158.152344 558.425781 C 158.074219 557.824219 158.5 557.273438 159.101562 557.203125 C 159.703125 557.125 160.25 557.550781 160.324219 558.152344 L 169.894531 634.003906 C 171.207031 644.402344 180.730469 652.867188 191.125 652.867188 L 216.871094 652.867188 C 217.476562 652.867188 217.96875 653.355469 217.96875 653.960938 C 217.96875 654.566406 217.476562 655.054688 216.871094 655.054688 " fill-opacity="1" fill-rule="nonzero"/><path fill="#a1a3d4" d="M 447.953125 634.820312 L 388.238281 161.523438 C 387.921875 158.992188 385.613281 156.945312 383.085938 156.945312 L 127.738281 156.945312 C 125.210938 156.945312 123.421875 158.992188 123.738281 161.523438 L 183.453125 634.820312 C 183.773438 637.351562 186.078125 639.398438 188.605469 639.398438 L 443.957031 639.398438 C 446.480469 639.398438 448.269531 637.351562 447.953125 634.820312 " fill-opacity="1" fill-rule="nonzero"/><path fill="#cbcce7" d="M 253.757812 143.835938 C 257.859375 143.835938 260.761719 140.511719 260.246094 136.410156 C 259.730469 132.3125 255.984375 128.988281 251.886719 128.988281 C 247.785156 128.988281 244.878906 132.3125 245.398438 136.410156 C 245.914062 140.511719 249.660156 143.835938 253.757812 143.835938 " fill-opacity="1" fill-rule="nonzero"/><path fill="#000000" d="M 396.941406 478.960938 C 396.902344 478.960938 396.863281 478.960938 396.824219 478.960938 C 384.59375 478.925781 372.007812 471.558594 359.417969 457.070312 C 350.59375 446.914062 344.976562 436.867188 344.742188 436.445312 C 342.871094 433.074219 344.085938 428.828125 347.453125 426.957031 C 350.820312 425.085938 355.070312 426.296875 356.941406 429.667969 C 362.414062 439.480469 380.25 464.953125 396.867188 465 C 396.890625 465 396.914062 465 396.941406 465 C 402.210938 465 406.285156 463.375 409.398438 460.03125 C 416.835938 452.019531 417.382812 436.015625 416.960938 430.527344 C 416.671875 426.683594 419.546875 423.328125 423.390625 423.035156 C 427.230469 422.746094 430.585938 425.621094 430.882812 429.464844 C 430.960938 430.519531 432.695312 455.457031 419.617188 469.53125 C 413.804688 475.789062 406.175781 478.960938 396.941406 478.960938 " fill-opacity="1" fill-rule="nonzero"/><path fill="#000000" d="M 445.941406 428.675781 L 404.609375 428.675781 C 400.757812 428.675781 397.632812 425.550781 397.632812 421.695312 C 397.632812 417.84375 400.757812 414.714844 404.609375 414.714844 L 445.941406 414.714844 C 449.792969 414.714844 452.917969 417.84375 452.917969 421.695312 C 452.917969 425.550781 449.792969 428.675781 445.941406 428.675781 " fill-opacity="1" fill-rule="nonzero"/><path fill="#fffbf2" d="M 389.699219 332.65625 L 389.144531 332.65625 L 389.144531 291.386719 L 389.699219 291.386719 C 401.085938 291.386719 410.316406 300.613281 410.316406 312.003906 L 410.316406 312.035156 C 410.316406 323.421875 401.085938 332.65625 389.699219 332.65625 " fill-opacity="1" fill-rule="nonzero"/><path fill="#000000" d="M 390.238281 292.488281 L 390.238281 331.550781 C 400.753906 331.261719 409.222656 322.621094 409.222656 312.035156 C 409.222656 301.417969 400.753906 292.777344 390.238281 292.488281 Z M 389.699219 333.75 L 389.144531 333.75 C 388.539062 333.75 388.046875 333.261719 388.046875 332.65625 L 388.046875 291.386719 C 388.046875 290.777344 388.539062 290.289062 389.144531 290.289062 L 389.699219 290.289062 C 401.671875 290.289062 411.410156 300.027344 411.410156 312.003906 C 411.410156 324.011719 401.671875 333.75 389.699219 333.75 " fill-opacity="1" fill-rule="nonzero"/><path fill="#fffbf2" d="M 202.273438 332.65625 L 202.832031 332.65625 L 202.832031 291.386719 L 202.273438 291.386719 C 190.886719 291.386719 181.660156 300.613281 181.660156 312.003906 L 181.660156 312.035156 C 181.660156 323.421875 190.886719 332.65625 202.273438 332.65625 " fill-opacity="1" fill-rule="nonzero"/><path fill="#000000" d="M 201.734375 292.488281 C 191.21875 292.777344 182.753906 301.417969 182.753906 312.003906 C 182.753906 322.617188 191.21875 331.261719 201.734375 331.550781 Z M 202.832031 333.75 L 202.273438 333.75 C 190.300781 333.75 180.5625 324.011719 180.5625 312.035156 C 180.5625 300.027344 190.300781 290.289062 202.273438 290.289062 L 202.832031 290.289062 C 203.433594 290.289062 203.925781 290.777344 203.925781 291.386719 L 203.925781 332.65625 C 203.925781 333.261719 203.433594 333.75 202.832031 333.75 " fill-opacity="1" fill-rule="nonzero"/><path fill="#fffbf2" d="M 196.160156 310.320312 C 196.160156 265.972656 240.851562 220.097656 295.984375 220.097656 C 351.117188 220.097656 395.8125 265.972656 395.8125 310.320312 C 395.8125 354.664062 351.117188 380.691406 295.984375 380.691406 C 240.851562 380.691406 196.160156 354.664062 196.160156 310.320312 " fill-opacity="1" fill-rule="nonzero"/><path fill="#000000" d="M 295.988281 221.191406 C 239.480469 221.191406 197.257812 268.246094 197.257812 310.3125 C 197.257812 331.074219 207.199219 348.671875 226.007812 361.21875 C 243.769531 373.066406 268.621094 379.589844 295.988281 379.589844 C 323.351562 379.589844 348.207031 373.066406 365.964844 361.21875 C 384.777344 348.671875 394.714844 331.074219 394.714844 310.3125 C 394.714844 268.246094 352.496094 221.191406 295.988281 221.191406 Z M 295.988281 381.78125 C 268.195312 381.78125 242.910156 375.125 224.792969 363.042969 C 205.34375 350.070312 195.066406 331.839844 195.066406 310.3125 C 195.066406 288.277344 205.847656 265.480469 224.648438 247.773438 C 244.355469 229.222656 269.691406 219 295.988281 219 C 322.285156 219 347.621094 229.222656 367.324219 247.773438 C 386.125 265.480469 396.910156 288.277344 396.910156 310.3125 C 396.910156 331.839844 386.628906 350.070312 367.183594 363.042969 C 349.066406 375.125 323.78125 381.78125 295.988281 381.78125 " fill-opacity="1" fill-rule="nonzero"/><path fill="#fffbf2" d="M 320.992188 394.007812 L 270.980469 394.007812 C 249.0625 394.007812 231.292969 411.785156 231.292969 433.703125 C 231.292969 448.1875 232.707031 462.636719 235.511719 476.84375 L 242.703125 513.261719 C 247.726562 538.714844 270.046875 557.058594 295.984375 557.058594 C 321.925781 557.058594 344.246094 538.714844 349.269531 513.261719 L 356.464844 476.84375 C 359.269531 462.636719 360.679688 448.1875 360.679688 433.703125 C 360.679688 411.785156 342.910156 394.007812 320.992188 394.007812 " fill-opacity="1" fill-rule="nonzero"/><path fill="#000000" d="M 270.980469 395.109375 C 249.703125 395.109375 232.390625 412.421875 232.390625 433.703125 C 232.390625 448.082031 233.800781 462.527344 236.585938 476.628906 L 243.777344 513.050781 C 248.6875 537.917969 270.644531 555.964844 295.984375 555.964844 C 321.332031 555.964844 343.289062 537.917969 348.195312 513.050781 L 355.382812 476.628906 C 358.171875 462.527344 359.585938 448.082031 359.585938 433.703125 C 359.585938 412.421875 342.269531 395.109375 320.992188 395.109375 Z M 295.988281 558.15625 C 269.597656 558.15625 246.738281 539.367188 241.628906 513.476562 L 234.4375 477.054688 C 231.625 462.8125 230.199219 448.226562 230.199219 433.703125 C 230.199219 411.214844 248.492188 392.914062 270.980469 392.914062 L 320.992188 392.914062 C 343.480469 392.914062 361.773438 411.214844 361.773438 433.703125 C 361.773438 448.226562 360.347656 462.8125 357.539062 477.054688 L 350.34375 513.476562 C 345.238281 539.367188 322.375 558.15625 295.988281 558.15625 " fill-opacity="1" fill-rule="nonzero"/><path fill="#7e81c4" d="M 296.007812 481.957031 L 295.964844 481.957031 C 280.945312 481.957031 268.765625 469.777344 268.765625 454.753906 L 268.765625 394.007812 L 323.207031 394.007812 L 323.207031 454.753906 C 323.207031 469.777344 311.03125 481.957031 296.007812 481.957031 " fill-opacity="1" fill-rule="nonzero"/><path fill="#000000" d="M 323.207031 395.109375 L 268.765625 395.109375 C 268.160156 395.109375 267.667969 394.617188 267.667969 394.007812 C 267.667969 393.40625 268.160156 392.914062 268.765625 392.914062 L 323.207031 392.914062 C 323.8125 392.914062 324.304688 393.40625 324.304688 394.007812 C 324.304688 394.617188 323.8125 395.109375 323.207031 395.109375 " fill-opacity="1" fill-rule="nonzero"/><path fill="#000000" d="M 363.101562 297.007812 L 266.972656 297.007812 C 256.984375 297.007812 248.890625 305.730469 248.890625 316.492188 L 248.890625 329.207031 C 248.890625 337.414062 253.269531 346.113281 260.824219 347.535156 C 287.464844 352.539062 342.605469 352.539062 369.246094 347.535156 C 376.804688 346.113281 381.183594 337.414062 381.183594 329.207031 L 381.183594 316.492188 C 381.183594 305.730469 373.085938 297.007812 363.101562 297.007812 " fill-opacity="1" fill-rule="nonzero"/><path fill="#7e81c4" d="M 292.449219 322.59375 C 292.449219 326.195312 289.738281 329.121094 286.390625 329.121094 C 283.042969 329.121094 280.332031 326.195312 280.332031 322.59375 C 280.332031 318.988281 283.042969 316.0625 286.390625 316.0625 C 289.738281 316.0625 292.449219 318.988281 292.449219 322.59375 " fill-opacity="1" fill-rule="nonzero"/><path fill="#7e81c4" d="M 356.898438 322.59375 C 356.898438 326.195312 354.1875 329.121094 350.839844 329.121094 C 347.5 329.121094 344.785156 326.195312 344.785156 322.59375 C 344.785156 318.988281 347.5 316.0625 350.839844 316.0625 C 354.1875 316.0625 356.898438 318.988281 356.898438 322.59375 " fill-opacity="1" fill-rule="nonzero"/><path fill="#000000" d="M 232.136719 510.683594 C 218.464844 510.683594 199.964844 508.738281 188.109375 499.644531 C 181.273438 494.40625 177.28125 487.488281 176.242188 479.082031 C 171.578125 441.351562 217.105469 419.753906 219.042969 418.851562 C 222.539062 417.230469 226.6875 418.75 228.3125 422.246094 C 229.933594 425.734375 228.417969 429.882812 224.929688 431.507812 C 224.546875 431.6875 186.675781 449.742188 190.09375 477.371094 C 190.664062 481.984375 192.792969 485.648438 196.601562 488.570312 C 209.636719 498.5625 238.066406 497.160156 247.917969 495.777344 C 251.734375 495.238281 255.265625 497.898438 255.800781 501.714844 C 256.335938 505.53125 253.675781 509.0625 249.859375 509.597656 C 249.160156 509.695312 241.871094 510.683594 232.136719 510.683594 " fill-opacity="1" fill-rule="nonzero"/><path fill="#000000" d="M 280.320312 518.105469 L 266.917969 518.105469 C 259.597656 518.105469 253.527344 512.613281 252.796875 505.328125 L 252.332031 500.660156 C 251.933594 496.679688 253.246094 492.695312 255.929688 489.726562 C 258.617188 486.761719 262.449219 485.058594 266.453125 485.058594 L 287.828125 485.058594 C 291.683594 485.058594 294.808594 488.183594 294.808594 492.035156 C 294.808594 495.886719 291.683594 499.015625 287.828125 499.015625 L 266.453125 499.015625 C 266.414062 499.015625 266.347656 499.015625 266.277344 499.09375 C 266.207031 499.167969 266.214844 499.234375 266.21875 499.269531 L 266.683594 503.9375 C 266.695312 504.058594 266.796875 504.148438 266.917969 504.148438 L 280.320312 504.148438 C 284.175781 504.148438 287.296875 507.277344 287.296875 511.128906 C 287.296875 514.980469 284.175781 518.105469 280.320312 518.105469 " fill-opacity="1" fill-rule="nonzero"/><path fill="#fffbf2" d="M 511.152344 632.53125 C 511.152344 673.589844 477.871094 706.875 436.816406 706.875 C 395.757812 706.875 362.476562 673.589844 362.476562 632.53125 C 362.476562 591.464844 395.757812 558.179688 436.816406 558.179688 C 477.871094 558.179688 511.152344 591.464844 511.152344 632.53125 " fill-opacity="1" fill-rule="nonzero"/><path fill="#000000" d="M 436.816406 559.277344 C 396.429688 559.277344 363.574219 592.136719 363.574219 632.53125 C 363.574219 672.917969 396.429688 705.78125 436.816406 705.78125 C 477.199219 705.78125 510.058594 672.917969 510.058594 632.53125 C 510.058594 592.136719 477.199219 559.277344 436.816406 559.277344 Z M 436.816406 707.972656 C 395.222656 707.972656 361.378906 674.128906 361.378906 632.53125 C 361.378906 590.925781 395.222656 557.082031 436.816406 557.082031 C 478.410156 557.082031 512.25 590.925781 512.25 632.53125 C 512.25 674.128906 478.410156 707.972656 436.816406 707.972656 " fill-opacity="1" fill-rule="nonzero"/><path fill="#7e81c4" d="M 504.152344 632.796875 C 504.152344 669.542969 474.367188 699.332031 437.625 699.332031 C 400.882812 699.332031 371.097656 669.542969 371.097656 632.796875 C 371.097656 596.050781 400.882812 566.261719 437.625 566.261719 C 474.367188 566.261719 504.152344 596.050781 504.152344 632.796875 " fill-opacity="1" fill-rule="nonzero"/></svg>