<svg xmlns="http://www.w3.org/2000/svg" xmlns:xlink="http://www.w3.org/1999/xlink" width="1080" zoomAndPan="magnify" viewBox="0 0 810 809.999993" height="1080" preserveAspectRatio="xMidYMid meet" version="1.0"><defs><clipPath id="id1"><path d="M 397 207.433594 L 422 207.433594 L 422 600 L 397 600 Z M 397 207.433594 " clip-rule="nonzero"/></clipPath><clipPath id="id2"><path d="M 224.148438 529 L 257 529 L 257 544 L 224.148438 544 Z M 224.148438 529 " clip-rule="nonzero"/></clipPath><clipPath id="id3"><path d="M 179 736 L 209 736 L 209 765.597656 L 179 765.597656 Z M 179 736 " clip-rule="nonzero"/></clipPath><clipPath id="id4"><path d="M 213 736 L 243 736 L 243 765.597656 L 213 765.597656 Z M 213 736 " clip-rule="nonzero"/></clipPath><clipPath id="id5"><path d="M 252 736 L 258 736 L 258 765.597656 L 252 765.597656 Z M 252 736 " clip-rule="nonzero"/></clipPath><clipPath id="id6"><path d="M 134.710938 596.847656 L 313.960938 596.847656 L 313.960938 713 L 134.710938 713 Z M 134.710938 596.847656 " clip-rule="nonzero"/></clipPath><clipPath id="id7"><path d="M 344.132812 114 L 466.382812 114 L 466.382812 169 L 344.132812 169 Z M 344.132812 114 " clip-rule="nonzero"/></clipPath><clipPath id="id8"><path d="M 370 44.332031 L 399 44.332031 L 399 73 L 370 73 Z M 370 44.332031 " clip-rule="nonzero"/></clipPath><clipPath id="id9"><path d="M 409 44.332031 L 438 44.332031 L 438 73 L 409 73 Z M 409 44.332031 " clip-rule="nonzero"/></clipPath><clipPath id="id10"><path d="M 358 44.332031 L 363 44.332031 L 363 73 L 358 73 Z M 358 44.332031 " clip-rule="nonzero"/></clipPath><clipPath id="id11"><path d="M 449 44.332031 L 455 44.332031 L 455 73 L 449 73 Z M 449 44.332031 " clip-rule="nonzero"/></clipPath><clipPath id="id12"><path d="M 414 175 L 419 175 L 419 207.082031 L 414 207.082031 Z M 414 175 " clip-rule="nonzero"/></clipPath></defs><path fill="rgb(42.749023%, 50.588989%, 69.799805%)" d="M 303.898438 593.085938 L 281.21875 587.574219 L 283.046875 610.617188 L 303.898438 615.761719 L 303.898438 593.085938 " fill-opacity="1" fill-rule="nonzero"/><path fill="rgb(100%, 100%, 100%)" d="M 384.320312 593.085938 L 361.644531 587.574219 L 281.21875 587.574219 L 303.898438 593.085938 L 384.320312 593.085938 " fill-opacity="1" fill-rule="nonzero"/><path fill="rgb(42.749023%, 50.588989%, 69.799805%)" d="M 361.644531 548.863281 L 281.21875 548.863281 L 281.21875 587.574219 L 361.644531 587.574219 L 361.644531 548.863281 " fill-opacity="1" fill-rule="nonzero"/><path fill="rgb(15.289307%, 18.429565%, 26.269531%)" d="M 358.179688 584.121094 L 358.179688 552.332031 L 284.679688 552.332031 L 284.679688 584.121094 L 358.179688 584.121094 " fill-opacity="1" fill-rule="nonzero"/><path fill="rgb(42.749023%, 50.588989%, 69.799805%)" d="M 281.21875 587.574219 L 281.21875 548.863281 C 281.21875 548.863281 270.570312 550.023438 269.515625 550.171875 C 268.449219 550.308594 265.042969 551.035156 265.042969 554.921875 C 265.042969 558.8125 265.042969 580.421875 265.042969 581.570312 C 265.042969 582.730469 264.410156 586.320312 281.21875 587.574219 " fill-opacity="1" fill-rule="nonzero"/><path fill="rgb(100%, 100%, 100%)" d="M 311.316406 553.847656 L 331.535156 553.847656 L 331.535156 547.191406 L 311.316406 547.191406 L 311.316406 553.847656 " fill-opacity="1" fill-rule="nonzero"/><path fill="rgb(83.139038%, 52.549744%, 49.409485%)" d="M 315.621094 557.167969 L 327.242188 557.167969 L 327.242188 553.847656 L 315.621094 553.847656 L 315.621094 557.167969 " fill-opacity="1" fill-rule="nonzero"/><path stroke-linecap="round" transform="matrix(0.270151, 0, 0, -0.269733, 173.264834, 680.275186)" fill="none" stroke-linejoin="miter" d="M 399.605215 481.052876 L 399.605215 349.180387 " stroke="rgb(15.289307%, 18.429565%, 26.269531%)" stroke-width="3" stroke-opacity="1" stroke-miterlimit="10"/><path fill="rgb(92.939758%, 33.329773%, 23.919678%)" d="M 337.054688 585.238281 L 340.84375 581.359375 C 340.84375 581.359375 353.855469 594.011719 357.960938 598.007812 C 362.066406 602 359.425781 604.699219 358.265625 605.878906 C 357.117188 607.066406 354.476562 609.765625 350.371094 605.773438 C 346.277344 601.777344 333.265625 589.113281 333.265625 589.113281 L 337.054688 585.238281 " fill-opacity="1" fill-rule="nonzero"/><path fill="rgb(100%, 100%, 100%)" d="M 316.8125 565.535156 L 326.640625 568.042969 L 329.265625 572.433594 L 339.671875 582.558594 L 334.4375 587.914062 L 324.03125 577.789062 L 319.570312 575.28125 L 316.8125 565.535156 " fill-opacity="1" fill-rule="nonzero"/><path stroke-linecap="round" transform="matrix(0.270151, 0, 0, -0.269733, 173.264834, 680.275186)" fill="none" stroke-linejoin="miter" d="M 533.948277 422.849984 L 559.686158 397.810721 " stroke="rgb(73.329163%, 76.469421%, 83.139038%)" stroke-width="3" stroke-opacity="1" stroke-miterlimit="10"/><path fill="rgb(88.238525%, 56.079102%, 51.759338%)" d="M 310.875 585.753906 L 314.335938 581.582031 C 314.335938 581.582031 328.339844 593.128906 332.75 596.773438 C 337.160156 600.417969 334.765625 603.328125 333.710938 604.601562 C 332.652344 605.878906 330.25 608.773438 325.835938 605.128906 C 321.414062 601.484375 307.410156 589.9375 307.410156 589.9375 L 310.875 585.753906 " fill-opacity="1" fill-rule="nonzero"/><path fill="rgb(100%, 100%, 100%)" d="M 290.125 573.214844 L 296.097656 578.136719 L 300.605469 572.699219 L 294.632812 567.765625 C 297.765625 566.144531 301.691406 566.429688 304.582031 568.820312 C 308.445312 572.003906 308.984375 577.714844 305.796875 581.570312 C 302.609375 585.425781 296.890625 585.964844 293.039062 582.78125 C 290.148438 580.390625 289.113281 576.585938 290.125 573.214844 " fill-opacity="1" fill-rule="nonzero"/><path fill="rgb(100%, 100%, 100%)" d="M 302.496094 583.402344 L 306.980469 577.976562 L 313.121094 583.046875 L 308.625 588.460938 L 302.496094 583.402344 " fill-opacity="1" fill-rule="nonzero"/><path fill="rgb(42.749023%, 50.588989%, 69.799805%)" d="M 384.320312 593.085938 L 382.652344 615.761719 L 303.898438 615.761719 L 303.898438 593.085938 L 384.320312 593.085938 " fill-opacity="1" fill-rule="nonzero"/><path fill="rgb(100%, 100%, 100%)" d="M 332.441406 604.960938 L 355.773438 604.960938 L 355.773438 595.160156 L 332.441406 595.160156 L 332.441406 604.960938 " fill-opacity="1" fill-rule="nonzero"/><path fill="rgb(42.749023%, 50.588989%, 69.799805%)" d="M 341.75 600.0625 C 341.75 601.355469 342.804688 602.421875 344.105469 602.421875 C 345.414062 602.421875 346.46875 601.355469 346.46875 600.0625 C 346.46875 598.765625 345.414062 597.710938 344.105469 597.710938 C 342.804688 597.710938 341.75 598.765625 341.75 600.0625 " fill-opacity="1" fill-rule="nonzero"/><path stroke-linecap="round" transform="matrix(0.270151, 0, 0, -0.269733, 173.264834, 680.275186)" fill="none" stroke-linejoin="miter" d="M 483.556977 318.942109 L 483.556977 242.651282 " stroke="rgb(15.289307%, 18.429565%, 26.269531%)" stroke-width="3" stroke-opacity="1" stroke-miterlimit="10"/><path fill="rgb(94.119263%, 54.899597%, 34.118652%)" d="M 490.355469 388.195312 C 490.355469 388.195312 485.417969 383.863281 468.382812 374.457031 C 451.363281 365.046875 449.144531 365.332031 448.566406 361.390625 C 447.996094 357.460938 447.773438 354.511719 447.414062 351.695312 C 447.058594 348.882812 445.539062 345.574219 441.285156 345.648438 C 437.160156 345.710938 435.511719 347.988281 435.003906 348.808594 L 429.160156 344.277344 C 429.160156 344.277344 421.519531 341.972656 421.804688 348.746094 C 421.804688 348.746094 418.34375 350.179688 419.566406 354.4375 C 419.566406 354.4375 417.6875 354.792969 418.195312 359.261719 C 418.195312 359.261719 416.03125 360.199219 417.191406 364.015625 C 418.34375 367.828125 426.996094 371.714844 433.632812 373.160156 C 440.273438 374.601562 442.65625 378.492188 449 384.539062 C 455.351562 390.597656 471.78125 405.664062 479.445312 408.539062 C 487.09375 411.40625 499.019531 397.109375 490.355469 388.195312 " fill-opacity="1" fill-rule="nonzero"/><path fill="rgb(15.289307%, 18.429565%, 26.269531%)" d="M 448.683594 309.5625 L 443.667969 319.875 L 449.894531 322.902344 L 454.917969 312.585938 C 458.71875 316.082031 460.003906 321.753906 457.628906 326.640625 C 455.730469 330.527344 452.015625 332.910156 448.015625 333.320312 L 427.492188 375.519531 C 429.644531 378.921875 430.078125 383.304688 428.179688 387.203125 C 425.804688 392.082031 420.539062 394.589844 415.441406 393.769531 L 420.464844 383.453125 L 414.214844 380.429688 L 409.203125 390.746094 C 405.394531 387.246094 404.117188 381.578125 406.503906 376.679688 C 408.390625 372.800781 412.09375 370.417969 416.117188 370.007812 L 436.628906 327.800781 C 434.476562 324.398438 434.054688 320.011719 435.945312 316.125 C 438.320312 311.238281 443.574219 308.738281 448.683594 309.5625 " fill-opacity="1" fill-rule="nonzero"/><path fill="rgb(94.119263%, 54.899597%, 34.118652%)" d="M 441.285156 345.648438 C 437.160156 345.710938 435.511719 347.988281 435.003906 348.808594 L 429.160156 344.277344 C 429.160156 344.277344 421.519531 341.972656 421.804688 348.746094 C 421.804688 348.746094 418.34375 350.179688 419.566406 354.4375 C 419.566406 354.4375 417.6875 354.792969 418.195312 359.261719 C 418.195312 359.261719 416.03125 360.199219 417.191406 364.015625 C 417.277344 364.296875 417.425781 364.59375 417.59375 364.878906 C 417.730469 365.046875 420.316406 367.953125 424.875 368.40625 C 429.558594 368.871094 428.1875 364.625 428.1875 364.625 C 428.1875 364.625 431.511719 363.941406 429.738281 360.335938 C 429.738281 360.335938 433.75 360.515625 432.695312 356.878906 C 432.695312 356.878906 437.285156 358.101562 440.21875 354.015625 C 442.003906 351.515625 443.449219 348.664062 443.480469 345.996094 C 442.835938 345.773438 442.128906 345.628906 441.285156 345.648438 " fill-opacity="1" fill-rule="nonzero"/><path stroke-linecap="round" transform="matrix(0.270151, 0, 0, -0.269733, 173.264834, 680.275186)" fill="none" stroke-linejoin="miter" d="M 960.315068 1198.951297 C 960.315068 1198.951297 952.188838 1200.54431 955.904926 1206.597758 C 957.885875 1209.928603 968.860623 1228.870973 968.860623 1228.870973 " stroke="rgb(40.779114%, 7.058716%, 0.389099%)" stroke-width="3" stroke-opacity="1" stroke-miterlimit="10"/><path stroke-linecap="round" transform="matrix(0.270151, 0, 0, -0.269733, 173.264834, 680.275186)" fill="none" stroke-linejoin="miter" d="M 904.414705 1169.292297 C 904.920787 1168.669574 914.492965 1157.895015 931.367182 1156.215111 C 948.704103 1154.491761 943.628824 1170.233623 943.628824 1170.233623 C 943.628824 1170.233623 955.933845 1172.767961 949.369239 1186.134786 C 949.369239 1186.134786 964.219129 1185.468617 960.315068 1198.951297 C 960.315068 1198.951297 977.304961 1194.418452 988.164033 1209.566555 " stroke="rgb(40.779114%, 7.058716%, 0.389099%)" stroke-width="3" stroke-opacity="1" stroke-miterlimit="10"/><path stroke-linecap="round" transform="matrix(0.270151, 0, 0, -0.269733, 173.264834, 680.275186)" fill="none" stroke-linejoin="miter" d="M 943.628824 1170.233623 C 943.628824 1170.233623 927.622176 1173.984444 911.601068 1186.250641 " stroke="rgb(40.779114%, 7.058716%, 0.389099%)" stroke-width="3" stroke-opacity="1" stroke-miterlimit="10"/><path stroke-linecap="round" transform="matrix(0.270151, 0, 0, -0.269733, 173.264834, 680.275186)" fill="none" stroke-linejoin="miter" d="M 916.01121 1204.019974 C 916.01121 1204.019974 929.342854 1192.926813 949.369239 1186.134786 " stroke="rgb(40.779114%, 7.058716%, 0.389099%)" stroke-width="3" stroke-opacity="1" stroke-miterlimit="10"/><path stroke-linecap="round" transform="matrix(0.270151, 0, 0, -0.269733, 173.264834, 680.275186)" fill="none" stroke-linejoin="miter" d="M 924.41217 1226.177333 C 924.41217 1226.177333 938.235437 1215.547593 957.148441 1208.755567 " stroke="rgb(40.779114%, 7.058716%, 0.389099%)" stroke-width="3" stroke-opacity="1" stroke-miterlimit="10"/><path fill="rgb(100%, 100%, 100%)" d="M 507.957031 393.503906 L 493.203125 386.085938 C 493.203125 386.085938 479.550781 393.917969 479.0625 413.050781 L 498.605469 423.925781 C 498.605469 423.925781 506.839844 418.601562 507.957031 393.503906 " fill-opacity="1" fill-rule="nonzero"/><path fill="rgb(97.648621%, 93.728638%, 89.019775%)" d="M 529.0625 420.742188 L 498.691406 421.132812 C 497.6875 402.375 506.003906 393.714844 506.003906 393.714844 C 506.003906 393.714844 530.074219 391.238281 553.597656 386.085938 L 529.0625 420.742188 " fill-opacity="1" fill-rule="nonzero"/><path stroke-linecap="round" transform="matrix(0.270151, 0, 0, -0.269733, 173.264834, 680.275186)" fill="none" stroke-linejoin="miter" d="M 1326.168921 1040.663761 C 1326.168921 1040.663761 1318.707827 1019.447728 1309.38146 990.70109 " stroke="rgb(83.139038%, 52.549744%, 49.409485%)" stroke-width="3" stroke-opacity="1" stroke-miterlimit="10"/><path stroke-linecap="round" transform="matrix(0.270151, 0, 0, -0.269733, 173.264834, 680.275186)" fill="none" stroke-linejoin="miter" d="M 697.427198 1155.939954 C 697.427198 1177.503553 700.232338 1198.400984 705.423292 1218.284679 C 716.716149 1261.484287 739.533214 1300.078641 770.317454 1330.54863 " stroke="rgb(40.779114%, 18.03894%, 0.389099%)" stroke-width="3" stroke-opacity="1" stroke-miterlimit="10"/><path stroke-linecap="round" transform="matrix(0.270151, 0, 0, -0.269733, 173.264834, 680.275186)" fill="none" stroke-linejoin="miter" d="M 1110.939508 1335.19733 C 1158.75702 1290.346781 1188.630313 1226.640755 1188.630313 1155.939954 " stroke="rgb(40.779114%, 18.03894%, 0.389099%)" stroke-width="3" stroke-opacity="1" stroke-miterlimit="10"/><path stroke-linecap="round" transform="matrix(0.270151, 0, 0, -0.269733, 173.264834, 680.275186)" fill="none" stroke-linejoin="miter" d="M 1089.958797 1302.888136 C 1114.380865 1278.471596 1132.72995 1248.001607 1142.620237 1213.911135 " stroke="rgb(40.779114%, 18.03894%, 0.389099%)" stroke-width="3" stroke-opacity="1" stroke-miterlimit="10"/><path stroke-linecap="round" transform="matrix(0.270151, 0, 0, -0.269733, 173.264834, 680.275186)" fill="none" stroke-linejoin="miter" d="M 750.941746 1076.636885 C 740.820108 1101.096871 735.238747 1127.845003 735.238747 1155.939954 C 735.238747 1212.8974 758.12811 1264.453084 795.231144 1301.990256 " stroke="rgb(40.779114%, 18.03894%, 0.389099%)" stroke-width="3" stroke-opacity="1" stroke-miterlimit="10"/><g clip-path="url(#id1)"><path fill="rgb(31.759644%, 38.42926%, 54.508972%)" d="M 421.117188 599.386719 L 397.964844 599.386719 L 397.964844 207.335938 L 421.117188 207.335938 L 421.117188 599.386719 " fill-opacity="1" fill-rule="nonzero"/></g><path fill="rgb(42.749023%, 50.588989%, 69.799805%)" d="M 422.238281 382.261719 L 396.847656 382.261719 C 393.386719 382.261719 393.554688 384.390625 393.554688 389.144531 C 393.554688 393.894531 393.386719 396.035156 396.847656 396.035156 L 422.238281 396.035156 C 425.699219 396.035156 425.527344 393.894531 425.527344 389.144531 C 425.527344 384.390625 425.699219 382.261719 422.238281 382.261719 " fill-opacity="1" fill-rule="nonzero"/><path fill="rgb(42.749023%, 50.588989%, 69.799805%)" d="M 422.238281 245.480469 L 396.847656 245.480469 C 393.386719 245.480469 393.554688 247.605469 393.554688 252.359375 C 393.554688 257.109375 393.386719 259.238281 396.847656 259.238281 L 422.238281 259.238281 C 425.699219 259.238281 425.527344 257.109375 425.527344 252.359375 C 425.527344 247.605469 425.699219 245.480469 422.238281 245.480469 " fill-opacity="1" fill-rule="nonzero"/><path fill="rgb(31.759644%, 38.42926%, 54.508972%)" d="M 252.105469 599.386719 L 229.015625 599.386719 L 229.015625 526.496094 C 229.015625 484.140625 259.027344 484.140625 273.464844 484.140625 L 397.964844 484.140625 L 397.964844 507.191406 L 273.464844 507.191406 C 257.488281 507.191406 252.105469 507.191406 252.105469 526.496094 L 252.105469 599.386719 " fill-opacity="1" fill-rule="nonzero"/><g clip-path="url(#id2)"><path fill="rgb(42.749023%, 50.588989%, 69.799805%)" d="M 253.253906 529.351562 L 227.863281 529.351562 C 224.402344 529.351562 224.574219 531.480469 224.574219 536.242188 C 224.574219 540.984375 224.402344 543.121094 227.863281 543.121094 L 253.253906 543.121094 C 256.714844 543.121094 256.546875 540.984375 256.546875 536.242188 C 256.546875 531.480469 256.714844 529.351562 253.253906 529.351562 " fill-opacity="1" fill-rule="nonzero"/></g><path fill="rgb(42.749023%, 50.588989%, 69.799805%)" d="M 297.089844 508.351562 L 297.089844 482.992188 C 297.089844 479.535156 294.949219 479.703125 290.191406 479.703125 C 285.429688 479.703125 283.296875 479.535156 283.296875 482.992188 L 283.296875 508.351562 C 283.296875 511.796875 285.429688 511.640625 290.191406 511.640625 C 294.949219 511.640625 297.089844 511.796875 297.089844 508.351562 " fill-opacity="1" fill-rule="nonzero"/><path fill="rgb(42.749023%, 50.588989%, 69.799805%)" d="M 397.964844 508.351562 L 397.964844 482.992188 C 397.964844 479.535156 395.824219 479.703125 391.0625 479.703125 C 386.304688 479.703125 384.171875 479.535156 384.171875 482.992188 L 384.171875 508.351562 C 384.171875 511.796875 386.304688 511.640625 391.0625 511.640625 C 395.824219 511.640625 397.964844 511.796875 397.964844 508.351562 " fill-opacity="1" fill-rule="nonzero"/><path fill="rgb(40.779114%, 18.03894%, 0.389099%)" d="M 669.339844 588.34375 C 668.730469 607.910156 662.40625 611.242188 655.832031 614.621094 C 652.5 616.339844 647.589844 616.667969 643.558594 616.570312 C 644.519531 614.484375 646.621094 612.367188 648.121094 607.277344 C 650.398438 599.585938 650.039062 587.585938 644.183594 582.886719 L 640.351562 561.878906 C 640.351562 561.878906 644.761719 561.203125 649.914062 559.476562 C 653.269531 558.347656 658.082031 558.273438 661.796875 558.546875 C 661.804688 558.558594 669.953125 568.789062 669.339844 588.34375 " fill-opacity="1" fill-rule="nonzero"/><path fill="rgb(100%, 100%, 100%)" d="M 674.53125 587.164062 C 675.640625 614.242188 661.984375 618.015625 659.007812 619.679688 C 656.035156 621.34375 644.246094 624.453125 643.210938 620.164062 C 642.863281 618.710938 643.0625 617.648438 643.558594 616.570312 C 647.589844 616.667969 652.5 616.339844 655.832031 614.621094 C 662.40625 611.242188 668.730469 607.910156 669.339844 588.34375 C 669.953125 568.789062 661.804688 558.558594 661.796875 558.546875 C 663.789062 558.695312 665.480469 558.949219 666.460938 559.199219 C 666.460938 559.199219 673.433594 560.074219 674.53125 587.164062 " fill-opacity="1" fill-rule="nonzero"/><path fill="rgb(100%, 100%, 100%)" d="M 624.703125 565.648438 C 624.703125 565.648438 632.679688 565.324219 640.351562 561.878906 C 640.351562 561.878906 647.980469 569.328125 646.242188 581.992188 L 634.15625 587.28125 L 624.703125 565.648438 " fill-opacity="1" fill-rule="nonzero"/><path fill="rgb(92.939758%, 33.329773%, 23.919678%)" d="M 517.65625 547.558594 C 517.65625 547.558594 524.484375 582.6875 542.929688 606.824219 C 561.375 630.953125 569.796875 620.511719 613.558594 603.96875 L 599.882812 565.921875 L 581.921875 569.179688 L 580.632812 551.035156 L 517.65625 547.558594 " fill-opacity="1" fill-rule="nonzero"/><path stroke-linecap="round" transform="matrix(0.270151, 0, 0, -0.269733, 173.264834, 680.275186)" fill="none" stroke-linejoin="miter" d="M 1512.696258 411.872678 L 1518.277619 332.772356 " stroke="rgb(40.779114%, 7.058716%, 0.389099%)" stroke-width="3" stroke-opacity="1" stroke-miterlimit="10"/><path fill="rgb(88.238525%, 56.079102%, 51.759338%)" d="M 614.847656 607.542969 L 637.757812 597.027344 C 637.757812 597.027344 629.484375 572.910156 620.703125 558.335938 C 620.070312 557.273438 598.859375 563.078125 598.859375 563.078125 L 614.847656 607.542969 " fill-opacity="1" fill-rule="nonzero"/><path fill="rgb(40.779114%, 18.03894%, 0.389099%)" d="M 400.613281 619.144531 C 386.527344 618.320312 377.207031 615.71875 371.296875 613.222656 C 372.480469 612.285156 374.179688 611.367188 376.660156 610.660156 C 384.277344 608.53125 387.730469 608.984375 399.253906 601.558594 C 410.777344 594.128906 412.433594 593.210938 412.433594 593.210938 L 436.957031 595.519531 C 436.957031 595.519531 441.601562 602.085938 445.378906 614.273438 C 440.027344 616.109375 424.347656 620.511719 400.613281 619.144531 " fill-opacity="1" fill-rule="nonzero"/><path fill="rgb(100%, 100%, 100%)" d="M 406.609375 625.664062 C 373.207031 625.476562 368.679688 617.140625 368.679688 617.140625 C 368.679688 617.140625 368.851562 615.160156 371.296875 613.222656 C 377.207031 615.71875 386.527344 618.320312 400.613281 619.144531 C 424.347656 620.511719 440.027344 616.109375 445.378906 614.273438 C 445.820312 615.707031 446.246094 617.195312 446.625 618.773438 C 446.625 618.773438 439.996094 625.84375 406.609375 625.664062 " fill-opacity="1" fill-rule="nonzero"/><path fill="rgb(100%, 100%, 100%)" d="M 443.40625 585.300781 L 438.042969 597.25 C 438.042969 597.25 418.847656 598.914062 412.433594 593.210938 L 419.007812 577.269531 L 443.40625 585.300781 " fill-opacity="1" fill-rule="nonzero"/><path stroke-linecap="butt" transform="matrix(0.270151, 0, 0, -0.269733, 173.264834, 680.275186)" fill="none" stroke-linejoin="miter" d="M 1429.684363 869.849352 C 1426.445439 864.838603 1427.891387 858.205877 1432.894369 855.00537 C 1437.89735 851.790381 1444.563172 853.238574 1447.773177 858.249323 C 1450.983183 863.202145 1449.537234 869.878316 1444.534253 873.078823 C 1439.531272 876.322777 1432.894369 874.845619 1429.684363 869.849352 Z M 1429.684363 869.849352 " stroke="rgb(78.039551%, 36.468506%, 0.389099%)" stroke-width="3" stroke-opacity="1" stroke-miterlimit="10"/><path fill="rgb(92.939758%, 33.329773%, 23.919678%)" d="M 432.292969 490.660156 C 441.507812 473.042969 467.476562 477.175781 516.242188 486.394531 C 516.242188 486.394531 517.402344 476.773438 520.484375 459.820312 C 522.65625 447.90625 517.496094 439.519531 520.15625 426.199219 C 523.214844 410.902344 553.597656 386.085938 553.597656 386.085938 C 553.597656 386.085938 555.210938 385.539062 559.445312 384.867188 C 537.453125 413.355469 536.007812 424.882812 536.007812 424.882812 L 555.054688 429.488281 C 555.054688 429.488281 558 420.203125 569.679688 402.15625 C 582.175781 382.832031 600.949219 389.207031 601.054688 389.238281 C 607.566406 394.191406 617.273438 401.132812 616.230469 414.800781 C 614.359375 439.316406 608.652344 483.414062 600.355469 520.34375 C 591.609375 559.339844 580.625 558.875 555.773438 555.648438 C 534.277344 552.859375 515.808594 548.582031 475.910156 533.851562 C 475.910156 533.851562 466.15625 561.476562 464.859375 565.816406 L 413.847656 547.285156 C 413.847656 547.285156 420.304688 513.566406 432.292969 490.660156 " fill-opacity="1" fill-rule="nonzero"/><path fill="rgb(94.119263%, 54.899597%, 34.118652%)" d="M 492.699219 415.769531 C 492.699219 415.769531 481.34375 413.722656 427.796875 417.675781 C 427.796875 417.675781 412.433594 408.171875 407.832031 405.085938 C 403.21875 401.996094 400.710938 401.609375 396.625 402.722656 C 392.550781 403.839844 384.214844 406.792969 383.984375 409.730469 C 383.738281 412.648438 387.242188 414.789062 387.242188 414.789062 C 387.242188 414.789062 381.871094 419.097656 387.011719 422.890625 C 387.011719 422.890625 385.1875 427.960938 390.949219 429.835938 C 390.949219 429.835938 391.917969 435.398438 398.355469 435.398438 L 398.449219 430.742188 C 398.449219 430.742188 414.28125 437.304688 423.15625 434.957031 C 423.15625 434.957031 459.859375 440.371094 477.003906 442.59375 C 493.445312 444.722656 501.066406 443.175781 507.957031 441.320312 L 492.699219 415.769531 " fill-opacity="1" fill-rule="nonzero"/><path fill="rgb(88.238525%, 56.079102%, 51.759338%)" d="M 467.328125 566.734375 L 411.917969 546.558594 L 405.246094 570.515625 C 405.246094 570.515625 424.527344 582.761719 459.605469 588.714844 L 467.328125 566.734375 " fill-opacity="1" fill-rule="nonzero"/><path fill="rgb(97.648621%, 93.728638%, 89.019775%)" d="M 534.855469 425.453125 L 555.054688 431.792969 C 555.054688 431.792969 558 420.203125 569.679688 402.15625 C 582.175781 382.832031 600.949219 389.207031 601.054688 389.238281 C 594.351562 384.160156 588.265625 382.601562 588.265625 382.601562 C 573.53125 383.054688 564.5625 384.066406 559.445312 384.867188 C 537.738281 408.171875 534.855469 425.453125 534.855469 425.453125 " fill-opacity="1" fill-rule="nonzero"/><path fill="rgb(100%, 100%, 100%)" d="M 523.214844 446.714844 C 523.214844 446.714844 517.339844 407.203125 517.097656 405.84375 C 517.097656 405.84375 495.578125 409.488281 492.910156 409.824219 C 492.910156 409.824219 492.085938 419.582031 493.679688 429.601562 C 494.753906 436.421875 497.542969 447.355469 499.703125 451.867188 C 499.703125 451.867188 511.070312 451.042969 523.214844 446.714844 " fill-opacity="1" fill-rule="nonzero"/><path stroke-linecap="round" transform="matrix(0.270151, 0, 0, -0.269733, 173.264834, 680.275186)" fill="none" stroke-linejoin="miter" d="M 1269.574502 718.788301 C 1269.574502 718.788301 1349.492068 701.525836 1382.271717 692.27188 " stroke="rgb(40.779114%, 7.058716%, 0.389099%)" stroke-width="3" stroke-opacity="1" stroke-miterlimit="10"/><path fill="rgb(88.238525%, 56.079102%, 51.759338%)" d="M 566.96875 388.5625 L 581.089844 374.792969 L 588.265625 382.601562 L 572.109375 402.15625 L 566.96875 388.5625 " fill-opacity="1" fill-rule="nonzero"/><path fill="rgb(88.238525%, 56.079102%, 51.759338%)" d="M 564.972656 380.09375 L 560.203125 383.695312 L 560.320312 394.917969 L 566.96875 388.5625 L 564.972656 380.09375 " fill-opacity="1" fill-rule="nonzero"/><path fill="rgb(97.648621%, 93.728638%, 89.019775%)" d="M 589.488281 394.675781 C 598.128906 393.050781 610.804688 393.210938 616.238281 403.808594 C 621.957031 414.976562 611.777344 427.917969 611.777344 427.917969 C 602.4375 440.75 586.988281 444.511719 575.441406 436.546875 C 571.96875 434.144531 570.882812 431.550781 570.882812 431.550781 L 522.753906 443.628906 C 514.828125 422.921875 517.222656 408.085938 517.222656 408.085938 C 517.222656 408.085938 582.859375 395.90625 589.488281 394.675781 " fill-opacity="1" fill-rule="nonzero"/><path stroke-linecap="round" transform="matrix(0.270151, 0, 0, -0.269733, 173.264834, 680.275186)" fill="none" stroke-linejoin="miter" d="M 1475.853494 922.809784 L 1532.115345 936.871742 " stroke="rgb(83.139038%, 52.549744%, 49.409485%)" stroke-width="3" stroke-opacity="1" stroke-miterlimit="10"/><path stroke-linecap="round" transform="matrix(0.270151, 0, 0, -0.269733, 173.264834, 680.275186)" fill="none" stroke-linejoin="miter" d="M 1275.199241 1009.455194 C 1275.199241 1009.455194 1386.956589 1030.236769 1466.642803 1045.080751 " stroke="rgb(83.139038%, 52.549744%, 49.409485%)" stroke-width="3" stroke-opacity="1" stroke-miterlimit="10"/><path stroke-linecap="round" transform="matrix(0.270151, 0, 0, -0.269733, 173.264834, 680.275186)" fill="none" stroke-linejoin="miter" d="M 1475.853494 922.809784 L 1295.38468 877.77097 " stroke="rgb(83.139038%, 52.549744%, 49.409485%)" stroke-width="3" stroke-opacity="1" stroke-miterlimit="10"/><path fill="rgb(40.779114%, 18.03894%, 0.389099%)" d="M 582.039062 329.136719 C 586.078125 325.199219 594.003906 324.28125 600.578125 327.875 C 610.183594 333.121094 610.53125 337.609375 610.582031 343.921875 C 610.644531 350.230469 614.742188 353.824219 621.261719 354.183594 C 627.785156 354.542969 633.050781 357.746094 632.585938 364.773438 C 632.046875 372.960938 638.113281 373.539062 640.375 372.496094 C 642.007812 371.746094 643.203125 370.125 642.714844 368.535156 C 642.242188 366.933594 639.296875 366.519531 638.105469 367.058594 C 638.105469 367.058594 641.164062 363.507812 644.46875 366.867188 C 648.53125 371.019531 642.9375 380.671875 638.273438 378.785156 C 634.980469 377.457031 633.34375 378.808594 630.484375 380.914062 C 627.625 383.019531 618.917969 383.484375 615.226562 380.0625 C 611.542969 376.65625 615.765625 370.304688 609.726562 368.375 C 603.46875 366.363281 598.859375 371.746094 589.792969 369.335938 C 582.523438 367.40625 575.675781 359.273438 575.347656 347.925781 C 575.0625 337.734375 579.695312 331.414062 582.039062 329.136719 " fill-opacity="1" fill-rule="nonzero"/><path fill="rgb(94.119263%, 54.899597%, 34.118652%)" d="M 549.554688 338.882812 C 549.554688 338.882812 546.824219 375.277344 558.179688 376.332031 C 569.542969 377.375 580.042969 361.769531 582.269531 344.414062 C 584.539062 326.765625 550.84375 323.394531 549.554688 338.882812 " fill-opacity="1" fill-rule="nonzero"/><path stroke-linecap="round" transform="matrix(0.270151, 0, 0, -0.269733, 173.264834, 680.275186)" fill="none" stroke-linejoin="miter" d="M 1424.218679 1163.39815 C 1424.218679 1163.39815 1439.372217 1156.244075 1449.407099 1168.235116 " stroke="rgb(40.779114%, 7.058716%, 0.389099%)" stroke-width="3" stroke-opacity="1" stroke-miterlimit="10"/><path fill="rgb(94.119263%, 54.899597%, 34.118652%)" d="M 565.554688 374.707031 C 565.554688 374.707031 565.859375 378.722656 564.972656 380.09375 L 566.96875 388.5625 L 579.640625 376.203125 L 577.425781 360.914062 L 565.554688 374.707031 " fill-opacity="1" fill-rule="nonzero"/><path fill="rgb(40.779114%, 18.03894%, 0.389099%)" d="M 584.128906 348.378906 C 584.128906 348.378906 584.835938 354.804688 578.089844 365.46875 C 578.089844 365.46875 575.496094 357.839844 575.644531 347.1875 C 575.726562 341.917969 584.128906 348.378906 584.128906 348.378906 " fill-opacity="1" fill-rule="nonzero"/><path stroke-linecap="round" transform="matrix(0.270151, 0, 0, -0.269733, 173.264834, 680.275186)" fill="none" stroke-linejoin="miter" d="M 1520.865867 1230.463985 C 1520.865867 1230.463985 1522.890194 1211.985038 1506.334086 1180.588205 " stroke="rgb(40.779114%, 7.058716%, 0.389099%)" stroke-width="3" stroke-opacity="1" stroke-miterlimit="10"/><path fill="rgb(100%, 100%, 100%)" d="M 549.546875 337.398438 C 551.011719 331.761719 559.371094 320.371094 574.375 325.375 C 589.824219 330.519531 585.742188 348.597656 585.742188 348.597656 C 553.808594 344.269531 535.480469 340.695312 535.046875 339.855469 C 534.285156 338.359375 549.546875 337.398438 549.546875 337.398438 " fill-opacity="1" fill-rule="nonzero"/><path stroke-linecap="round" transform="matrix(0.270151, 0, 0, -0.269733, 173.264834, 680.275186)" fill="none" stroke-linejoin="miter" d="M 1394.692413 1270.897544 C 1404.799592 1269.14523 1462.420634 1256.879033 1526.837633 1229.652997 " stroke="rgb(83.139038%, 52.549744%, 49.409485%)" stroke-width="3" stroke-opacity="1" stroke-miterlimit="10"/><path fill="rgb(94.119263%, 54.899597%, 34.118652%)" d="M 574.832031 358.1875 C 574.832031 358.1875 583.757812 362.023438 585.804688 355.53125 C 587.589844 349.90625 576.667969 347.207031 574.832031 358.1875 " fill-opacity="1" fill-rule="nonzero"/><path fill="rgb(74.899292%, 21.958923%, 14.118958%)" d="M 565.554688 374.707031 L 565.605469 374.644531 C 569.394531 372.621094 572.835938 368.933594 575.644531 364.191406 L 575.652344 364.203125 C 573.828125 374.835938 568.351562 378.542969 565.195312 379.597656 C 565.796875 377.933594 565.554688 374.707031 565.554688 374.707031 " fill-opacity="1" fill-rule="nonzero"/><path stroke-linecap="round" transform="matrix(0.270151, 0, 0, -0.269733, 173.264834, 680.275186)" fill="none" stroke-linejoin="miter" d="M 1450.78075 1114.724371 L 1457.345355 1081.488332 L 1504.25192 1127.309171 " stroke="rgb(40.779114%, 7.058716%, 0.389099%)" stroke-width="3" stroke-opacity="1" stroke-miterlimit="10"/><path stroke-linecap="round" transform="matrix(0.270151, 0, 0, -0.269733, 173.264834, 680.275186)" fill="none" stroke-linejoin="miter" d="M 1204.810475 1006.051939 C 1194.298431 1004.343071 1186.013147 1003.010733 1183.208007 1002.663167 C 1183.208007 1002.663167 1182.542871 994.408465 1182.427195 981.838146 " stroke="rgb(83.139038%, 52.549744%, 49.409485%)" stroke-width="3" stroke-opacity="1" stroke-miterlimit="10"/><path stroke-linecap="round" transform="matrix(0.270151, 0, 0, -0.269733, 173.264834, 680.275186)" fill="none" stroke-linejoin="miter" d="M 1500.188805 460.112 C 1477.848903 454.449564 1450.50602 457.534215 1415.904475 462.038097 C 1371.991024 467.729497 1331.490011 475.115283 1279.218978 489.771 " stroke="rgb(40.779114%, 7.058716%, 0.389099%)" stroke-width="3" stroke-opacity="1" stroke-miterlimit="10"/><path fill="rgb(49.409485%, 50.588989%, 76.858521%)" d="M 193.683594 685.457031 C 188.355469 685.457031 184.019531 681.132812 184.019531 675.816406 C 184.019531 670.5 188.355469 666.175781 193.683594 666.175781 C 199.015625 666.175781 203.351562 670.5 203.351562 675.816406 C 203.351562 681.132812 199.015625 685.457031 193.683594 685.457031 Z M 193.683594 661.339844 C 185.683594 661.339844 179.171875 667.835938 179.171875 675.816406 C 179.171875 683.800781 185.683594 690.292969 193.683594 690.292969 C 201.6875 690.292969 208.199219 683.800781 208.199219 675.816406 C 208.199219 667.835938 201.6875 661.339844 193.683594 661.339844 " fill-opacity="1" fill-rule="nonzero"/><path fill="rgb(49.409485%, 50.588989%, 76.858521%)" d="M 193.683594 723.121094 C 188.355469 723.121094 184.019531 718.796875 184.019531 713.480469 C 184.019531 708.164062 188.355469 703.839844 193.683594 703.839844 C 199.015625 703.839844 203.351562 708.164062 203.351562 713.480469 C 203.351562 718.796875 199.015625 723.121094 193.683594 723.121094 Z M 193.683594 699.003906 C 185.683594 699.003906 179.171875 705.496094 179.171875 713.480469 C 179.171875 721.460938 185.683594 727.957031 193.683594 727.957031 C 201.6875 727.957031 208.199219 721.460938 208.199219 713.480469 C 208.199219 705.496094 201.6875 699.003906 193.683594 699.003906 " fill-opacity="1" fill-rule="nonzero"/><g clip-path="url(#id3)"><path fill="rgb(49.409485%, 50.588989%, 76.858521%)" d="M 193.683594 760.785156 C 188.355469 760.785156 184.019531 756.460938 184.019531 751.144531 C 184.019531 745.828125 188.355469 741.503906 193.683594 741.503906 C 199.015625 741.503906 203.351562 745.828125 203.351562 751.144531 C 203.351562 756.460938 199.015625 760.785156 193.683594 760.785156 Z M 193.683594 736.667969 C 185.683594 736.667969 179.171875 743.164062 179.171875 751.144531 C 179.171875 759.128906 185.683594 765.621094 193.683594 765.621094 C 201.6875 765.621094 208.199219 759.128906 208.199219 751.144531 C 208.199219 743.164062 201.6875 736.667969 193.683594 736.667969 " fill-opacity="1" fill-rule="nonzero"/></g><g clip-path="url(#id4)"><path fill="rgb(49.409485%, 50.588989%, 76.858521%)" d="M 227.933594 760.785156 C 222.605469 760.785156 218.269531 756.460938 218.269531 751.144531 C 218.269531 745.828125 222.605469 741.503906 227.933594 741.503906 C 233.261719 741.503906 237.597656 745.828125 237.597656 751.144531 C 237.597656 756.460938 233.261719 760.785156 227.933594 760.785156 Z M 227.933594 736.667969 C 219.933594 736.667969 213.421875 743.164062 213.421875 751.144531 C 213.421875 759.128906 219.933594 765.621094 227.933594 765.621094 C 235.933594 765.621094 242.441406 759.128906 242.441406 751.144531 C 242.441406 743.164062 235.933594 736.667969 227.933594 736.667969 " fill-opacity="1" fill-rule="nonzero"/></g><path fill="rgb(49.409485%, 50.588989%, 76.858521%)" d="M 254.945312 685.457031 C 249.617188 685.457031 245.28125 681.132812 245.28125 675.816406 C 245.28125 670.5 249.617188 666.175781 254.945312 666.175781 C 260.273438 666.175781 264.609375 670.5 264.609375 675.816406 C 264.609375 681.132812 260.273438 685.457031 254.945312 685.457031 Z M 254.945312 661.339844 C 246.945312 661.339844 240.433594 667.835938 240.433594 675.816406 C 240.433594 683.800781 246.945312 690.292969 254.945312 690.292969 C 262.949219 690.292969 269.457031 683.800781 269.457031 675.816406 C 269.457031 667.835938 262.949219 661.339844 254.945312 661.339844 " fill-opacity="1" fill-rule="nonzero"/><path fill="rgb(49.409485%, 50.588989%, 76.858521%)" d="M 217.636719 661.339844 C 216.296875 661.339844 215.210938 662.421875 215.210938 663.757812 L 215.210938 687.875 C 215.210938 689.210938 216.296875 690.292969 217.636719 690.292969 C 218.976562 690.292969 220.058594 689.210938 220.058594 687.875 L 220.058594 663.757812 C 220.058594 662.421875 218.976562 661.339844 217.636719 661.339844 " fill-opacity="1" fill-rule="nonzero"/><path fill="rgb(49.409485%, 50.588989%, 76.858521%)" d="M 234.386719 687.875 L 234.386719 663.757812 C 234.386719 662.421875 233.300781 661.339844 231.960938 661.339844 C 230.625 661.339844 229.539062 662.421875 229.539062 663.757812 L 229.539062 687.875 C 229.539062 689.210938 230.625 690.292969 231.960938 690.292969 C 233.300781 690.292969 234.386719 689.210938 234.386719 687.875 " fill-opacity="1" fill-rule="nonzero"/><path fill="rgb(49.409485%, 50.588989%, 76.858521%)" d="M 217.898438 701.421875 L 217.898438 725.539062 C 217.898438 726.875 218.984375 727.957031 220.320312 727.957031 C 221.664062 727.957031 222.746094 726.875 222.746094 725.539062 L 222.746094 701.421875 C 222.746094 700.085938 221.664062 699.003906 220.320312 699.003906 C 218.984375 699.003906 217.898438 700.085938 217.898438 701.421875 " fill-opacity="1" fill-rule="nonzero"/><path fill="rgb(49.409485%, 50.588989%, 76.858521%)" d="M 240.878906 725.539062 L 240.878906 701.421875 C 240.878906 700.085938 239.792969 699.003906 238.453125 699.003906 C 237.117188 699.003906 236.03125 700.085938 236.03125 701.421875 L 236.03125 725.539062 C 236.03125 726.875 237.117188 727.957031 238.453125 727.957031 C 239.792969 727.957031 240.878906 726.875 240.878906 725.539062 " fill-opacity="1" fill-rule="nonzero"/><path fill="rgb(49.409485%, 50.588989%, 76.858521%)" d="M 254.945312 699.003906 C 253.609375 699.003906 252.523438 700.085938 252.523438 701.421875 L 252.523438 725.539062 C 252.523438 726.875 253.609375 727.957031 254.945312 727.957031 C 256.285156 727.957031 257.371094 726.875 257.371094 725.539062 L 257.371094 701.421875 C 257.371094 700.085938 256.285156 699.003906 254.945312 699.003906 " fill-opacity="1" fill-rule="nonzero"/><g clip-path="url(#id5)"><path fill="rgb(49.409485%, 50.588989%, 76.858521%)" d="M 254.945312 736.667969 C 253.609375 736.667969 252.523438 737.75 252.523438 739.085938 L 252.523438 763.203125 C 252.523438 764.539062 253.609375 765.621094 254.945312 765.621094 C 256.285156 765.621094 257.371094 764.539062 257.371094 763.203125 L 257.371094 739.085938 C 257.371094 737.75 256.285156 736.667969 254.945312 736.667969 " fill-opacity="1" fill-rule="nonzero"/></g><g clip-path="url(#id6)"><path fill="rgb(49.409485%, 50.588989%, 76.858521%)" d="M 301.082031 675.316406 C 303.167969 671.085938 304.257812 666.445312 304.257812 661.730469 C 304.257812 644.667969 290.339844 630.789062 273.238281 630.789062 C 271.050781 630.789062 268.867188 631.023438 266.714844 631.492188 C 266.523438 618.230469 255.648438 607.5 242.308594 607.5 C 236.308594 607.5 230.539062 609.722656 226.085938 613.683594 C 217.597656 603.105469 204.703125 596.867188 191.050781 596.867188 C 166.3125 596.867188 146.1875 616.945312 146.1875 641.617188 C 146.1875 649.792969 148.382812 657.667969 152.5625 664.605469 C 142.222656 667.515625 134.816406 677 134.816406 688.015625 C 134.816406 701.441406 145.765625 712.363281 159.222656 712.363281 C 160.5625 712.363281 161.648438 711.277344 161.648438 709.945312 C 161.648438 708.609375 160.5625 707.527344 159.222656 707.527344 C 148.4375 707.527344 139.664062 698.773438 139.664062 688.015625 C 139.664062 678.167969 147.050781 669.847656 156.847656 668.664062 C 157.699219 668.5625 158.429688 668.019531 158.773438 667.238281 C 159.121094 666.457031 159.023438 665.550781 158.527344 664.855469 C 153.625 658.046875 151.035156 650.007812 151.035156 641.617188 C 151.035156 619.609375 168.984375 601.703125 191.050781 601.703125 C 204.085938 601.703125 216.34375 608.078125 223.839844 618.757812 C 224.265625 619.363281 224.949219 619.742188 225.691406 619.785156 C 226.429688 619.832031 227.15625 619.523438 227.644531 618.96875 C 231.371094 614.75 236.714844 612.332031 242.308594 612.332031 C 253.09375 612.332031 261.867188 621.085938 261.867188 631.84375 C 261.867188 632.605469 261.808594 633.421875 261.679688 634.414062 C 261.570312 635.238281 261.894531 636.066406 262.542969 636.59375 C 263.1875 637.125 264.0625 637.285156 264.855469 637.015625 C 267.597656 636.089844 270.417969 635.621094 273.238281 635.621094 C 287.667969 635.621094 299.410156 647.335938 299.410156 661.730469 C 299.410156 666.617188 298.019531 671.40625 295.386719 675.585938 C 294.957031 676.269531 294.898438 677.125 295.230469 677.863281 C 295.5625 678.601562 296.242188 679.125 297.042969 679.253906 C 303.953125 680.398438 308.96875 686.300781 308.96875 693.285156 C 308.96875 701.136719 302.5625 707.527344 294.691406 707.527344 C 293.351562 707.527344 292.265625 708.609375 292.265625 709.945312 C 292.265625 711.277344 293.351562 712.363281 294.691406 712.363281 C 305.234375 712.363281 313.8125 703.804688 313.8125 693.285156 C 313.8125 685.058594 308.625 677.957031 301.082031 675.316406 " fill-opacity="1" fill-rule="nonzero"/></g><g clip-path="url(#id7)"><path fill="rgb(49.409485%, 50.588989%, 76.858521%)" d="M 416.230469 148.960938 C 415.777344 149.292969 415.511719 149.820312 415.511719 150.382812 L 415.511719 164.816406 L 394.972656 164.816406 L 394.972656 150.382812 C 394.972656 149.820312 394.703125 149.292969 394.25 148.960938 L 351.453125 117.601562 L 459.03125 117.601562 Z M 466.09375 115.292969 C 465.855469 114.566406 465.179688 114.078125 464.417969 114.078125 L 346.066406 114.078125 C 345.304688 114.078125 344.628906 114.566406 344.390625 115.292969 C 344.152344 116.015625 344.410156 116.808594 345.023438 117.261719 L 391.449219 151.277344 L 391.449219 166.582031 C 391.449219 167.554688 392.238281 168.34375 393.210938 168.34375 L 417.273438 168.34375 C 418.246094 168.34375 419.035156 167.554688 419.035156 166.582031 L 419.035156 151.277344 L 465.457031 117.261719 C 466.074219 116.808594 466.328125 116.015625 466.09375 115.292969 " fill-opacity="1" fill-rule="nonzero"/></g><path fill="rgb(49.409485%, 50.588989%, 76.858521%)" d="M 370.050781 83.96875 C 375.304688 83.96875 379.574219 88.242188 379.574219 93.492188 C 379.574219 98.746094 375.304688 103.015625 370.050781 103.015625 C 364.800781 103.015625 360.527344 98.746094 360.527344 93.492188 C 360.527344 88.242188 364.800781 83.96875 370.050781 83.96875 Z M 370.050781 107.378906 C 377.707031 107.378906 383.9375 101.152344 383.9375 93.492188 C 383.9375 85.835938 377.707031 79.605469 370.050781 79.605469 C 362.394531 79.605469 356.167969 85.835938 356.167969 93.492188 C 356.167969 101.152344 362.394531 107.378906 370.050781 107.378906 " fill-opacity="1" fill-rule="nonzero"/><g clip-path="url(#id8)"><path fill="rgb(49.409485%, 50.588989%, 76.858521%)" d="M 384.644531 48.703125 C 389.894531 48.703125 394.167969 52.976562 394.167969 58.226562 C 394.167969 63.480469 389.894531 67.75 384.644531 67.75 C 379.394531 67.75 375.121094 63.480469 375.121094 58.226562 C 375.121094 52.976562 379.394531 48.703125 384.644531 48.703125 Z M 384.644531 72.113281 C 392.300781 72.113281 398.53125 65.882812 398.53125 58.226562 C 398.53125 50.570312 392.300781 44.339844 384.644531 44.339844 C 376.988281 44.339844 370.757812 50.570312 370.757812 58.226562 C 370.757812 65.882812 376.988281 72.113281 384.644531 72.113281 " fill-opacity="1" fill-rule="nonzero"/></g><g clip-path="url(#id9)"><path fill="rgb(49.409485%, 50.588989%, 76.858521%)" d="M 423.710938 48.703125 C 428.960938 48.703125 433.234375 52.976562 433.234375 58.226562 C 433.234375 63.480469 428.960938 67.75 423.710938 67.75 C 418.457031 67.75 414.1875 63.480469 414.1875 58.226562 C 414.1875 52.976562 418.457031 48.703125 423.710938 48.703125 Z M 423.710938 72.113281 C 431.367188 72.113281 437.597656 65.882812 437.597656 58.226562 C 437.597656 50.570312 431.367188 44.339844 423.710938 44.339844 C 416.054688 44.339844 409.824219 50.570312 409.824219 58.226562 C 409.824219 65.882812 416.054688 72.113281 423.710938 72.113281 " fill-opacity="1" fill-rule="nonzero"/></g><path fill="rgb(49.409485%, 50.588989%, 76.858521%)" d="M 389.757812 81.789062 L 389.757812 105.199219 C 389.757812 106.402344 390.734375 107.378906 391.941406 107.378906 C 393.144531 107.378906 394.121094 106.402344 394.121094 105.199219 L 394.121094 81.789062 C 394.121094 80.582031 393.144531 79.605469 391.941406 79.605469 C 390.734375 79.605469 389.757812 80.582031 389.757812 81.789062 " fill-opacity="1" fill-rule="nonzero"/><g clip-path="url(#id10)"><path fill="rgb(49.409485%, 50.588989%, 76.858521%)" d="M 360.324219 72.113281 C 361.527344 72.113281 362.507812 71.136719 362.507812 69.929688 L 362.507812 46.523438 C 362.507812 45.316406 361.527344 44.339844 360.324219 44.339844 C 359.121094 44.339844 358.144531 45.316406 358.144531 46.523438 L 358.144531 69.929688 C 358.144531 71.136719 359.121094 72.113281 360.324219 72.113281 " fill-opacity="1" fill-rule="nonzero"/></g><path fill="rgb(49.409485%, 50.588989%, 76.858521%)" d="M 437.335938 93.492188 C 437.335938 98.746094 433.066406 103.015625 427.8125 103.015625 C 422.5625 103.015625 418.289062 98.746094 418.289062 93.492188 C 418.289062 88.242188 422.5625 83.96875 427.8125 83.96875 C 433.066406 83.96875 437.335938 88.242188 437.335938 93.492188 Z M 413.925781 93.492188 C 413.925781 101.152344 420.15625 107.378906 427.8125 107.378906 C 435.46875 107.378906 441.699219 101.152344 441.699219 93.492188 C 441.699219 85.835938 435.46875 79.605469 427.8125 79.605469 C 420.15625 79.605469 413.925781 85.835938 413.925781 93.492188 " fill-opacity="1" fill-rule="nonzero"/><path fill="rgb(49.409485%, 50.588989%, 76.858521%)" d="M 452.136719 107.378906 C 453.339844 107.378906 454.316406 106.402344 454.316406 105.199219 L 454.316406 81.789062 C 454.316406 80.582031 453.339844 79.605469 452.136719 79.605469 C 450.929688 79.605469 449.953125 80.582031 449.953125 81.789062 L 449.953125 105.199219 C 449.953125 106.402344 450.929688 107.378906 452.136719 107.378906 " fill-opacity="1" fill-rule="nonzero"/><g clip-path="url(#id11)"><path fill="rgb(49.409485%, 50.588989%, 76.858521%)" d="M 452.136719 72.113281 C 453.339844 72.113281 454.316406 71.136719 454.316406 69.929688 L 454.316406 46.523438 C 454.316406 45.316406 453.339844 44.339844 452.136719 44.339844 C 450.929688 44.339844 449.953125 45.316406 449.953125 46.523438 L 449.953125 69.929688 C 449.953125 71.136719 450.929688 72.113281 452.136719 72.113281 " fill-opacity="1" fill-rule="nonzero"/></g><path fill="rgb(49.409485%, 50.588989%, 76.858521%)" d="M 405.015625 107.378906 C 406.21875 107.378906 407.195312 106.402344 407.195312 105.199219 L 407.195312 81.789062 C 407.195312 80.582031 406.21875 79.605469 405.015625 79.605469 C 403.808594 79.605469 402.832031 80.582031 402.832031 81.789062 L 402.832031 105.199219 C 402.832031 106.402344 403.808594 107.378906 405.015625 107.378906 " fill-opacity="1" fill-rule="nonzero"/><path fill="rgb(49.409485%, 50.588989%, 76.858521%)" d="M 393.960938 175.429688 C 392.988281 175.429688 392.199219 176.21875 392.199219 177.191406 L 392.199219 188.105469 C 392.199219 189.078125 392.988281 189.867188 393.960938 189.867188 C 394.933594 189.867188 395.722656 189.078125 395.722656 188.105469 L 395.722656 177.191406 C 395.722656 176.21875 394.933594 175.429688 393.960938 175.429688 " fill-opacity="1" fill-rule="nonzero"/><path fill="rgb(49.409485%, 50.588989%, 76.858521%)" d="M 404.703125 175.429688 C 403.730469 175.429688 402.941406 176.21875 402.941406 177.191406 L 402.941406 194.753906 C 402.941406 195.726562 403.730469 196.515625 404.703125 196.515625 C 405.675781 196.515625 406.464844 195.726562 406.464844 194.753906 L 406.464844 177.191406 C 406.464844 176.21875 405.675781 175.429688 404.703125 175.429688 " fill-opacity="1" fill-rule="nonzero"/><g clip-path="url(#id12)"><path fill="rgb(49.409485%, 50.588989%, 76.858521%)" d="M 416.519531 175.429688 C 415.546875 175.429688 414.761719 176.21875 414.761719 177.191406 L 414.761719 205.3125 C 414.761719 206.285156 415.546875 207.074219 416.519531 207.074219 C 417.496094 207.074219 418.28125 206.285156 418.28125 205.3125 L 418.28125 177.191406 C 418.28125 176.21875 417.496094 175.429688 416.519531 175.429688 " fill-opacity="1" fill-rule="nonzero"/></g></svg>